<svg width="72" height="72" viewBox="0 0 72 72" fill="none" xmlns="http://www.w3.org/2000/svg">
<path d="M64.3178 13.7724H66.5424C67.3184 13.7724 67.9477 13.143 67.9477 12.367C67.9477 11.591 67.3184 10.9617 66.5424 10.9617H61.2022C60.4261 10.9617 59.7968 11.591 59.7968 12.367V17.7073C59.7968 18.4833 60.4261 19.1126 61.2022 19.1126C61.9782 19.1126 62.6075 18.4833 62.6075 17.7073V16.161C66.8715 21.8696 69.1893 28.796 69.1893 36C69.1893 54.3007 54.3007 69.1893 36 69.1893C17.6993 69.1893 2.81066 54.3007 2.81066 36C2.81066 17.6993 17.6993 2.81066 36 2.81066C37.3535 2.81066 38.7157 2.89287 40.049 3.0549C40.8185 3.14793 41.5201 2.6 41.6137 1.82946C41.7075 1.05905 41.1588 0.358359 40.3883 0.264764C38.9428 0.0890978 37.4665 0 36 0C26.384 0 17.3436 3.74464 10.5442 10.5442C3.74464 17.3436 0 26.384 0 36C0 45.616 3.74464 54.6564 10.5442 61.4558C17.3436 68.2554 26.384 72 36 72C45.616 72 54.6564 68.2554 61.4558 61.4558C68.2554 54.6564 72 45.616 72 36C72 27.8855 69.2891 20.0955 64.3178 13.7724Z" fill="white"/>
<path d="M15.2431 21.2224C14.5872 20.8073 13.7191 21.0026 13.3039 21.6581C10.0956 26.7251 8.67543 32.8189 9.30487 38.817C9.94359 44.904 12.6833 50.6442 17.0193 54.9804C22.252 60.2131 29.1256 62.8296 35.9994 62.8296C42.8731 62.8296 49.7465 60.2133 54.9794 54.9804C65.445 44.5148 65.445 27.4858 54.9794 17.0204C50.65 12.6911 44.9193 9.95241 38.8423 9.30877C32.8554 8.67427 26.7682 10.0834 21.7032 13.2759C21.0465 13.6897 20.8499 14.5575 21.2636 15.2141C21.6775 15.8708 22.5453 16.0674 23.2019 15.6537C32.7494 9.63607 44.9992 11.0151 52.9919 19.0078C62.3616 28.3775 62.3616 43.6231 52.9919 52.9928C43.6223 62.3627 28.3764 62.3627 19.0068 52.9928C11.1246 45.1106 9.72492 32.5648 15.6787 23.1618C16.0937 22.5059 15.8988 21.6377 15.2431 21.2224Z" fill="white"/>
<path d="M54.2698 37.4286H56.0029C56.7789 37.4286 57.4082 36.7993 57.4082 36.0232C57.4082 35.2472 56.7789 34.6179 56.0029 34.6179H54.2698C53.4938 34.6179 52.8645 35.2472 52.8645 36.0232C52.8645 36.7993 53.4937 37.4286 54.2698 37.4286Z" fill="white"/>
<path d="M14.5917 35.9772C14.5917 36.7532 15.221 37.3825 15.997 37.3825H17.7301C18.5061 37.3825 19.1354 36.7532 19.1354 35.9772C19.1354 35.2012 18.5061 34.5719 17.7301 34.5719H15.997C15.221 34.5719 14.5917 35.2011 14.5917 35.9772Z" fill="white"/>
<path d="M37.4286 17.7309V15.9979C37.4286 15.2218 36.7993 14.5925 36.0232 14.5925C35.2472 14.5925 34.6179 15.2218 34.6179 15.9979V17.7309C34.6179 18.5069 35.2472 19.1362 36.0232 19.1362C36.7993 19.1362 37.4286 18.5069 37.4286 17.7309Z" fill="white"/>
<path d="M34.5728 54.2698V56.0029C34.5728 56.7789 35.2021 57.4082 35.9781 57.4082C36.7541 57.4082 37.3834 56.7789 37.3834 56.0029V54.2698C37.3834 53.4938 36.7541 52.8645 35.9781 52.8645C35.2021 52.8645 34.5728 53.4937 34.5728 54.2698Z" fill="white"/>
<path d="M28.9565 26.9682C28.4076 26.4196 27.518 26.4196 26.969 26.9682C26.4202 27.517 26.4202 28.4068 26.969 28.9558L31.7318 33.7186C31.3668 34.3987 31.1592 35.1755 31.1592 35.9998C31.1592 38.6694 33.331 40.8412 36.0006 40.8412C38.6701 40.8412 40.8419 38.6694 40.8419 35.9998C40.8419 35.1755 40.6342 34.3987 40.2694 33.7186L49.8795 24.1085C50.4282 23.5597 50.4282 22.6699 49.8795 22.121C49.3305 21.5723 48.441 21.5723 47.8919 22.121L38.2818 31.731C37.6017 31.366 36.8249 31.1585 36.0006 31.1585C35.1762 31.1585 34.3995 31.3662 33.7193 31.731L28.9565 26.9682ZM38.0313 35.9998C38.0313 37.1196 37.1203 38.0305 36.0006 38.0305C34.8808 38.0305 33.9699 37.1196 33.9699 35.9998C33.9699 34.8801 34.8808 33.9691 36.0006 33.9691C37.1203 33.9691 38.0313 34.8801 38.0313 35.9998Z" fill="white"/>
<path d="M19.0075 19.0067C19.2703 18.7453 19.4206 18.3827 19.4206 18.0131C19.4206 17.6435 19.2703 17.2823 19.0075 17.0195C18.7461 16.7583 18.3848 16.6078 18.014 16.6078C17.6444 16.6078 17.2818 16.7582 17.0204 17.0195C16.7592 17.2809 16.6086 17.6435 16.6086 18.0131C16.6086 18.3841 16.759 18.7453 17.0204 19.0067C17.2818 19.2679 17.6444 19.4184 18.014 19.4184C18.3848 19.4184 18.7461 19.2679 19.0075 19.0067Z" fill="white"/>
<path d="M45.7352 4.19921C46.1063 4.19921 46.4689 4.0501 46.7301 3.78744C46.9915 3.52605 47.142 3.16474 47.142 2.79388C47.142 2.42428 46.9917 2.0617 46.7301 1.80031C46.4689 1.53906 46.1063 1.38855 45.7352 1.38855C45.3656 1.38855 45.003 1.53892 44.7417 1.80031C44.4803 2.0617 44.3298 2.42428 44.3298 2.79388C44.3298 3.16488 44.4802 3.52605 44.7417 3.78744C45.003 4.0501 45.3656 4.19921 45.7352 4.19921Z" fill="white"/>
</svg>
