<svg width="82" height="82" viewBox="0 0 82 82" fill="none" xmlns="http://www.w3.org/2000/svg">
<path d="M78.1562 56.9091V11.291C78.1562 8.59751 75.9648 6.40625 73.2715 6.40625H61.6602V4.80469C61.6602 2.15538 59.5048 0 56.8555 0C54.2062 0 52.0508 2.15538 52.0508 4.80469V6.40625H26.1055V4.80469C26.1055 2.15538 23.9501 0 21.3008 0C18.6515 0 16.4961 2.15538 16.4961 4.80469V6.40625H4.88477C2.19142 6.40625 0 8.59751 0 11.291V70.709C0 73.4025 2.19142 75.5938 4.88477 75.5938H26.7142C27.5986 75.5938 28.3158 74.8767 28.3158 73.9922C28.3158 73.1076 27.5986 72.3906 26.7142 72.3906H4.88477C3.95746 72.3906 3.20312 71.6363 3.20312 70.709V11.291C3.20312 10.3637 3.95746 9.60938 4.88477 9.60938H16.4961V11.2109C16.4961 13.8602 18.6515 16.0156 21.3008 16.0156C23.9501 16.0156 26.1055 13.8602 26.1055 11.2109V9.60938H52.0508V11.2109C52.0508 13.8602 54.2062 16.0156 56.8555 16.0156C59.5048 16.0156 61.6602 13.8602 61.6602 11.2109V9.60938H73.2715C74.1988 9.60938 74.9531 10.3637 74.9531 11.291V19.2188H14.4141C13.5297 19.2188 12.8125 19.9358 12.8125 20.8203C12.8125 21.7049 13.5297 22.4219 14.4141 22.4219H74.9531V54.2028C73.5896 53.3428 72.0793 52.6957 70.4688 52.308V28.5078C70.4688 27.6233 69.7516 26.9062 68.8672 26.9062H9.28906C8.40468 26.9062 7.6875 27.6233 7.6875 28.5078V66.3047C7.6875 67.1892 8.40468 67.9062 9.28906 67.9062H51.9222C52.0216 69.4782 52.3629 70.9853 52.9102 72.3906H39.5266C38.6422 72.3906 37.925 73.1076 37.925 73.9922C37.925 74.8767 38.6422 75.5938 39.5266 75.5938H54.6298C57.3568 79.4654 61.8604 82 66.9453 82C75.2465 82 82 75.2465 82 66.9453C82 63.0929 80.5448 59.5746 78.1562 56.9091ZM22.9023 11.2109C22.9023 12.094 22.1839 12.8125 21.3008 12.8125C20.4177 12.8125 19.6992 12.094 19.6992 11.2109V4.80469C19.6992 3.92159 20.4177 3.20312 21.3008 3.20312C22.1839 3.20312 22.9023 3.92159 22.9023 4.80469V11.2109ZM58.457 11.2109C58.457 12.094 57.7386 12.8125 56.8555 12.8125C55.9724 12.8125 55.2539 12.094 55.2539 11.2109V4.80469C55.2539 3.92159 55.9724 3.20312 56.8555 3.20312C57.7386 3.20312 58.457 3.92159 58.457 4.80469V11.2109ZM66.9453 51.8906C66.2007 51.8906 65.4688 51.9459 64.7528 52.0508H58.5531V42.7617H67.2656V51.8946C67.1591 51.8924 67.0525 51.8906 66.9453 51.8906ZM52.0577 64.7031H46.6375V55.2539H55.35V57.3542C53.6423 59.4152 52.4725 61.9374 52.0577 64.7031ZM10.8906 42.7617H19.6031V52.0508H10.8906V42.7617ZM22.8062 42.7617H31.5188V52.0508H22.8062V42.7617ZM46.6375 42.7617H55.35V52.0508H46.6375V42.7617ZM43.4344 52.0508H34.7219V42.7617H43.4344V52.0508ZM46.6375 39.5586V30.1094H55.35V39.5586H46.6375ZM43.4344 39.5586H34.7219V30.1094H43.4344V39.5586ZM31.5188 39.5586H22.8062V30.1094H31.5188V39.5586ZM31.5188 55.2539V64.7031H22.8062V55.2539H31.5188ZM34.7219 55.2539H43.4344V64.7031H34.7219V55.2539ZM67.2656 39.5586H58.5531V30.1094H67.2656V39.5586ZM19.6031 30.1094V39.5586H10.8906V30.1094H19.6031ZM10.8906 55.2539H19.6031V64.7031H10.8906V55.2539ZM66.9453 78.7969C60.4103 78.7969 55.0938 73.4803 55.0938 66.9453C55.0938 60.4103 60.4103 55.0938 66.9453 55.0938C73.4803 55.0938 78.7969 60.4103 78.7969 66.9453C78.7969 73.4803 73.4803 78.7969 66.9453 78.7969Z" fill="white"/>
<path d="M71.5787 63.0636L66.6252 68.017L64.4212 65.813C63.7959 65.1876 62.7821 65.1876 62.1561 65.813C61.5307 66.4384 61.5307 67.4525 62.1561 68.0779L65.4926 71.4144C65.7931 71.7147 66.2003 71.8835 66.6251 71.8835C67.0498 71.8835 67.4571 71.7147 67.7575 71.4144L73.8435 65.3285C74.4689 64.7031 74.4689 63.689 73.8435 63.0634C73.2181 62.4381 72.2043 62.4382 71.5787 63.0636Z" fill="white"/>
<path d="M33.1199 72.3906C32.6987 72.3906 32.2855 72.562 31.9876 72.8599C31.6898 73.1578 31.5183 73.571 31.5183 73.9922C31.5183 74.4134 31.6897 74.8266 31.9876 75.1245C32.2855 75.4224 32.6987 75.5938 33.1199 75.5938C33.5411 75.5938 33.9543 75.4224 34.2522 75.1245C34.5499 74.8266 34.7214 74.4134 34.7214 73.9922C34.7214 73.571 34.5501 73.1578 34.2522 72.8599C33.9543 72.562 33.5411 72.3906 33.1199 72.3906Z" fill="white"/>
<path d="M9.13996 21.9526C9.43801 21.6547 9.60938 21.2415 9.60938 20.8203C9.60938 20.3991 9.43801 19.9859 9.13996 19.688C8.84223 19.3901 8.42902 19.2188 8.00781 19.2188C7.58484 19.2188 7.1734 19.3901 6.87551 19.688C6.57762 19.9859 6.40625 20.3991 6.40625 20.8203C6.40625 21.2415 6.57746 21.6547 6.87551 21.9526C7.17356 22.2505 7.58484 22.4219 8.00781 22.4219C8.42902 22.4219 8.84223 22.2505 9.13996 21.9526Z" fill="white"/>
</svg>
