<svg width="42" height="42" viewBox="0 0 42 42" fill="none" xmlns="http://www.w3.org/2000/svg">
<path d="M11.2002 26.6933V12.3667H28.4668L30.3102 10.5H9.3335V26.6933H11.2002Z" fill="black"/>
<path d="M6.99984 8.16665H34.9998V26.8333H37.3332V7.58331C37.3332 7.11918 37.1488 6.67406 36.8206 6.34588C36.4924 6.01769 36.0473 5.83331 35.5832 5.83331H6.4165C5.95238 5.83331 5.50726 6.01769 5.17907 6.34588C4.85088 6.67406 4.6665 7.11918 4.6665 7.58331V26.8333H6.99984V8.16665Z" fill="black"/>
<path d="M1.1665 29.1667V33.1334C1.1665 33.9378 1.48609 34.7094 2.05495 35.2782C2.62381 35.8471 3.39535 36.1667 4.19984 36.1667H37.7298C38.5343 36.1667 39.3059 35.8471 39.8747 35.2782C40.4436 34.7094 40.7632 33.9378 40.7632 33.1334V29.1667H1.1665ZM38.4998 33.1334C38.4998 33.319 38.4261 33.4971 38.2948 33.6283C38.1635 33.7596 37.9855 33.8334 37.7998 33.8334H4.15317C3.96752 33.8334 3.78947 33.7596 3.6582 33.6283C3.52692 33.4971 3.45317 33.319 3.45317 33.1334V30.9517H15.0615C15.2074 31.2958 15.4508 31.5897 15.7618 31.797C16.0728 32.0044 16.4377 32.1161 16.8115 32.1184H25.1298C25.5036 32.1161 25.8685 32.0044 26.1795 31.797C26.4905 31.5897 26.734 31.2958 26.8798 30.9517H38.4998V33.1334Z" fill="black"/>
</svg>
