<svg width="32" height="32" viewBox="0 0 32 32" fill="none" xmlns="http://www.w3.org/2000/svg">
<g clip-path="url(#clip0)">
<path d="M31.9383 17.4782C31.651 14.5883 30.3599 11.8638 28.3028 9.80656C26.5447 8.0486 24.3929 6.91889 22.1288 6.41657V4.82855C23.0535 4.59848 23.7409 3.7614 23.7409 2.76645C23.7409 1.59468 22.7877 0.641418 21.6159 0.641418H17.1158C15.9441 0.641418 14.9908 1.59468 14.9908 2.76645C14.9908 3.76134 15.6782 4.59842 16.6029 4.82855V6.42101C14.3457 6.92545 12.201 8.0536 10.448 9.80662C10.0643 10.1903 9.71059 10.5927 9.38677 11.011C9.37108 11.0098 9.3554 11.0086 9.3394 11.0086H4.88551C4.54038 11.0086 4.2605 11.2884 4.2605 11.6336C4.2605 11.9788 4.54038 12.2586 4.88551 12.2586H8.53632C8.07806 13.0258 7.70856 13.8315 7.4273 14.6609H0.62501C0.279879 14.6609 0 14.9407 0 15.2859C0 15.6311 0.279879 15.9109 0.62501 15.9109H7.07411C6.89398 16.7016 6.79061 17.5063 6.76392 18.3133H4.00006C3.65493 18.3133 3.37505 18.5931 3.37505 18.9383C3.37505 19.2835 3.65493 19.5633 4.00006 19.5633H6.78386C6.83661 20.3723 6.96667 21.1771 7.17411 21.9656H3.12505C2.77992 21.9656 2.50004 22.2454 2.50004 22.5906C2.50004 22.9358 2.77992 23.2156 3.12505 23.2156H7.57299C8.18613 24.8376 9.14433 26.3578 10.448 27.6615C12.5071 29.7206 15.2344 31.012 18.1273 31.2978C18.5402 31.3386 18.9534 31.3588 19.3661 31.3588C21.805 31.3588 24.2129 30.653 26.256 29.3224C26.5453 29.1341 26.6271 28.7469 26.4387 28.4576C26.2503 28.1683 25.8632 28.0865 25.5739 28.2749C21.1015 31.1873 15.1119 30.5576 11.3319 26.7776C6.89667 22.3424 6.89667 15.1258 11.3319 10.6906C15.767 6.25544 22.9835 6.25544 27.4188 10.6906C31.1938 14.4656 31.8269 20.4502 28.9242 24.9204C28.7362 25.2099 28.8185 25.597 29.108 25.7849C29.3976 25.9729 29.7846 25.8906 29.9725 25.6011C31.5234 23.2126 32.2216 20.3279 31.9383 17.4782ZM16.2408 2.76651C16.2408 2.28401 16.6333 1.8915 17.1158 1.8915H21.6159C22.0984 1.8915 22.4909 2.28401 22.4909 2.76651C22.4909 3.24902 22.0984 3.64153 21.6159 3.64153H21.5038H17.2279H17.1158C16.6333 3.64153 16.2408 3.24896 16.2408 2.76651ZM17.8529 6.20613V4.89155H20.8788V6.20388C19.874 6.08438 18.8575 6.08513 17.8529 6.20613Z" fill="black"/>
<path d="M27.8613 26.5942C27.6963 26.5942 27.5357 26.6611 27.4195 26.7773C27.3026 26.8936 27.2363 27.0548 27.2363 27.2192C27.2363 27.3836 27.3026 27.5448 27.4195 27.6611C27.5357 27.7779 27.6964 27.8442 27.8613 27.8442C28.0257 27.8442 28.1863 27.7779 28.3032 27.6611C28.4195 27.5448 28.4863 27.3836 28.4863 27.2192C28.4863 27.0548 28.4195 26.8936 28.3032 26.7773C28.1863 26.6611 28.0256 26.5942 27.8613 26.5942Z" fill="black"/>
<path d="M19.3749 9.03784C14.0287 9.03784 9.6792 13.3873 9.6792 18.7336C9.6792 24.0798 14.0287 28.4293 19.3749 28.4293C24.7211 28.4293 29.0706 24.0798 29.0706 18.7336C29.0706 13.3873 24.7211 9.03784 19.3749 9.03784ZM19.3749 27.1793C14.7179 27.1793 10.9292 23.3905 10.9292 18.7336C10.9292 14.0766 14.7179 10.2879 19.3749 10.2879C24.0319 10.2879 27.8206 14.0766 27.8206 18.7336C27.8206 23.3905 24.0319 27.1793 19.3749 27.1793Z" fill="black"/>
<path d="M23.3289 13.8966L20.2332 16.9922C19.9743 16.8642 19.6831 16.7919 19.3753 16.7919C19.0674 16.7919 18.7763 16.8642 18.5174 16.9922L17.1319 15.6068C16.8878 15.3627 16.4922 15.3627 16.248 15.6068C16.0039 15.8508 16.0039 16.2466 16.248 16.4907L17.6334 17.8761C17.5054 18.135 17.4331 18.4262 17.4331 18.734C17.4331 19.8049 18.3043 20.6762 19.3753 20.6762C20.4462 20.6762 21.3174 19.8049 21.3174 18.734C21.3174 18.4262 21.2451 18.135 21.1171 17.8761L24.1219 14.8713L24.2127 14.7805C24.4568 14.5364 24.4568 14.1407 24.2127 13.8966C23.9687 13.6525 23.573 13.6525 23.3289 13.8966ZM19.3753 19.4262C18.9937 19.4262 18.6832 19.1157 18.6832 18.7341C18.6832 18.3524 18.9937 18.0419 19.3753 18.0419C19.7569 18.0419 20.0674 18.3524 20.0674 18.7341C20.0674 19.1157 19.7569 19.4262 19.3753 19.4262Z" fill="black"/>
<path d="M26.0581 18.1165H25.479C25.1339 18.1165 24.854 18.3963 24.854 18.7415C24.854 19.0866 25.1339 19.3665 25.479 19.3665H26.0581C26.4032 19.3665 26.6831 19.0866 26.6831 18.7415C26.6831 18.3963 26.4032 18.1165 26.0581 18.1165Z" fill="black"/>
<path d="M13.2719 18.1012H12.6929C12.3477 18.1012 12.0679 18.381 12.0679 18.7262C12.0679 19.0714 12.3477 19.3512 12.6929 19.3512H13.2719C13.617 19.3512 13.8969 19.0714 13.8969 18.7262C13.8969 18.381 13.617 18.1012 13.2719 18.1012Z" fill="black"/>
<path d="M19.3828 13.2557C19.7279 13.2557 20.0078 12.9759 20.0078 12.6307V12.0517C20.0078 11.7065 19.7279 11.4267 19.3828 11.4267C19.0377 11.4267 18.7578 11.7065 18.7578 12.0517V12.6307C18.7578 12.9759 19.0377 13.2557 19.3828 13.2557Z" fill="black"/>
<path d="M19.3677 24.2126C19.0226 24.2126 18.7427 24.4925 18.7427 24.8376V25.4166C18.7427 25.7618 19.0226 26.0416 19.3677 26.0416C19.7128 26.0416 19.9927 25.7618 19.9927 25.4166V24.8376C19.9927 24.4925 19.7128 24.2126 19.3677 24.2126Z" fill="black"/>
<path d="M0.625 21.9653C0.460625 21.9653 0.299375 22.0321 0.183125 22.1484C0.066875 22.2646 0 22.4259 0 22.5903C0 22.7553 0.0668125 22.9159 0.183125 23.0321C0.299437 23.1484 0.460625 23.2153 0.625 23.2153C0.789375 23.2153 0.950625 23.1484 1.06681 23.0321C1.18306 22.9159 1.25 22.7546 1.25 22.5903C1.25 22.4259 1.18313 22.2646 1.06681 22.1484C0.950625 22.0321 0.789375 21.9653 0.625 21.9653Z" fill="black"/>
</g>
<defs>
<clipPath id="clip0">
<rect width="32" height="32" fill="white"/>
</clipPath>
</defs>
</svg>
