<svg width="35" height="35" viewBox="0 0 35 35" fill="none" xmlns="http://www.w3.org/2000/svg">
<path fill-rule="evenodd" clip-rule="evenodd" d="M31.7188 4.375H28.4375V2.1875H26.25V4.375H8.75V2.1875H6.5625V4.375H3.28125L2.1875 5.46875V31.7188L3.28125 32.8125H31.7188L32.8125 31.7188V5.46875L31.7188 4.375ZM30.625 30.625H4.375V10.9375H30.625V30.625ZM30.625 8.75H4.375V6.5625H30.625V8.75ZM8.75 17.5H6.5625V19.6875H8.75V17.5ZM6.5625 21.875H8.75V24.0625H6.5625V21.875ZM8.75 26.25H6.5625V28.4375H8.75V26.25ZM13.125 17.5H15.3125V19.6875H13.125V17.5ZM15.3125 21.875H13.125V24.0625H15.3125V21.875ZM13.125 26.25H15.3125V28.4375H13.125V26.25ZM15.3125 13.125H13.125V15.3125H15.3125V13.125ZM19.6875 17.5H21.875V19.6875H19.6875V17.5ZM21.875 21.875H19.6875V24.0625H21.875V21.875ZM19.6875 26.25H21.875V28.4375H19.6875V26.25ZM21.875 13.125H19.6875V15.3125H21.875V13.125ZM26.25 17.5H28.4375V19.6875H26.25V17.5ZM28.4375 21.875H26.25V24.0625H28.4375V21.875ZM26.25 13.125H28.4375V15.3125H26.25V13.125Z" fill="black"/>
</svg>
