<svg width="192" height="254" viewBox="0 0 192 254" fill="none" xmlns="http://www.w3.org/2000/svg">
<path d="M8.34779 4.18681C8.34779 6.49913 6.47907 8.37363 4.17389 8.37363C1.86872 8.37363 0 6.49913 0 4.18681C0 1.8745 1.86872 0 4.17389 0C6.47907 0 8.34779 1.8745 8.34779 4.18681Z" fill="#D0D0D0"/>
<path d="M8.34779 4.18681C8.34779 6.49913 6.47907 8.37363 4.17389 8.37363C1.86872 8.37363 0 6.49913 0 4.18681C0 1.8745 1.86872 0 4.17389 0C6.47907 0 8.34779 1.8745 8.34779 4.18681Z" fill="url(#paint0_linear)"/>
<path d="M69.5655 4.18681C69.5655 6.49913 67.6968 8.37363 65.3916 8.37363C63.0864 8.37363 61.2177 6.49913 61.2177 4.18681C61.2177 1.8745 63.0864 0 65.3916 0C67.6968 0 69.5655 1.8745 69.5655 4.18681Z" fill="#D0D0D0"/>
<path d="M69.5655 4.18681C69.5655 6.49913 67.6968 8.37363 65.3916 8.37363C63.0864 8.37363 61.2177 6.49913 61.2177 4.18681C61.2177 1.8745 63.0864 0 65.3916 0C67.6968 0 69.5655 1.8745 69.5655 4.18681Z" fill="url(#paint1_linear)"/>
<path d="M130.782 4.18681C130.782 6.49913 128.914 8.37363 126.608 8.37363C124.303 8.37363 122.434 6.49913 122.434 4.18681C122.434 1.8745 124.303 0 126.608 0C128.914 0 130.782 1.8745 130.782 4.18681Z" fill="#D0D0D0"/>
<path d="M130.782 4.18681C130.782 6.49913 128.914 8.37363 126.608 8.37363C124.303 8.37363 122.434 6.49913 122.434 4.18681C122.434 1.8745 124.303 0 126.608 0C128.914 0 130.782 1.8745 130.782 4.18681Z" fill="url(#paint2_linear)"/>
<path d="M192 4.18681C192 6.49913 190.131 8.37363 187.826 8.37363C185.521 8.37363 183.652 6.49913 183.652 4.18681C183.652 1.8745 185.521 0 187.826 0C190.131 0 192 1.8745 192 4.18681Z" fill="#D0D0D0"/>
<path d="M192 4.18681C192 6.49913 190.131 8.37363 187.826 8.37363C185.521 8.37363 183.652 6.49913 183.652 4.18681C183.652 1.8745 185.521 0 187.826 0C190.131 0 192 1.8745 192 4.18681Z" fill="url(#paint3_linear)"/>
<path d="M8.34779 65.5933C8.34779 67.9057 6.47907 69.7802 4.17389 69.7802C1.86872 69.7802 0 67.9057 0 65.5933C0 63.281 1.86872 61.4065 4.17389 61.4065C6.47907 61.4065 8.34779 63.281 8.34779 65.5933Z" fill="#D0D0D0"/>
<path d="M8.34779 65.5933C8.34779 67.9057 6.47907 69.7802 4.17389 69.7802C1.86872 69.7802 0 67.9057 0 65.5933C0 63.281 1.86872 61.4065 4.17389 61.4065C6.47907 61.4065 8.34779 63.281 8.34779 65.5933Z" fill="url(#paint4_linear)"/>
<path d="M69.5655 65.5933C69.5655 67.9057 67.6968 69.7802 65.3916 69.7802C63.0864 69.7802 61.2177 67.9057 61.2177 65.5933C61.2177 63.281 63.0864 61.4065 65.3916 61.4065C67.6968 61.4065 69.5655 63.281 69.5655 65.5933Z" fill="#D0D0D0"/>
<path d="M69.5655 65.5933C69.5655 67.9057 67.6968 69.7802 65.3916 69.7802C63.0864 69.7802 61.2177 67.9057 61.2177 65.5933C61.2177 63.281 63.0864 61.4065 65.3916 61.4065C67.6968 61.4065 69.5655 63.281 69.5655 65.5933Z" fill="url(#paint5_linear)"/>
<path d="M130.782 65.5933C130.782 67.9057 128.914 69.7802 126.608 69.7802C124.303 69.7802 122.434 67.9057 122.434 65.5933C122.434 63.281 124.303 61.4065 126.608 61.4065C128.914 61.4065 130.782 63.281 130.782 65.5933Z" fill="#D0D0D0"/>
<path d="M130.782 65.5933C130.782 67.9057 128.914 69.7802 126.608 69.7802C124.303 69.7802 122.434 67.9057 122.434 65.5933C122.434 63.281 124.303 61.4065 126.608 61.4065C128.914 61.4065 130.782 63.281 130.782 65.5933Z" fill="url(#paint6_linear)"/>
<path d="M192 65.5933C192 67.9057 190.131 69.7802 187.826 69.7802C185.521 69.7802 183.652 67.9057 183.652 65.5933C183.652 63.281 185.521 61.4065 187.826 61.4065C190.131 61.4065 192 63.281 192 65.5933Z" fill="#D0D0D0"/>
<path d="M192 65.5933C192 67.9057 190.131 69.7802 187.826 69.7802C185.521 69.7802 183.652 67.9057 183.652 65.5933C183.652 63.281 185.521 61.4065 187.826 61.4065C190.131 61.4065 192 63.281 192 65.5933Z" fill="url(#paint7_linear)"/>
<path d="M8.34779 127C8.34779 129.312 6.47907 131.187 4.17389 131.187C1.86872 131.187 0 129.312 0 127C0 124.688 1.86872 122.813 4.17389 122.813C6.47907 122.813 8.34779 124.688 8.34779 127Z" fill="#D0D0D0"/>
<path d="M8.34779 127C8.34779 129.312 6.47907 131.187 4.17389 131.187C1.86872 131.187 0 129.312 0 127C0 124.688 1.86872 122.813 4.17389 122.813C6.47907 122.813 8.34779 124.688 8.34779 127Z" fill="url(#paint8_linear)"/>
<path d="M69.5655 127C69.5655 129.312 67.6968 131.187 65.3916 131.187C63.0864 131.187 61.2177 129.312 61.2177 127C61.2177 124.688 63.0864 122.813 65.3916 122.813C67.6968 122.813 69.5655 124.688 69.5655 127Z" fill="#D0D0D0"/>
<path d="M69.5655 127C69.5655 129.312 67.6968 131.187 65.3916 131.187C63.0864 131.187 61.2177 129.312 61.2177 127C61.2177 124.688 63.0864 122.813 65.3916 122.813C67.6968 122.813 69.5655 124.688 69.5655 127Z" fill="url(#paint9_linear)"/>
<path d="M130.782 127C130.782 129.312 128.914 131.187 126.608 131.187C124.303 131.187 122.434 129.312 122.434 127C122.434 124.688 124.303 122.813 126.608 122.813C128.914 122.813 130.782 124.688 130.782 127Z" fill="#D0D0D0"/>
<path d="M130.782 127C130.782 129.312 128.914 131.187 126.608 131.187C124.303 131.187 122.434 129.312 122.434 127C122.434 124.688 124.303 122.813 126.608 122.813C128.914 122.813 130.782 124.688 130.782 127Z" fill="url(#paint10_linear)"/>
<path d="M192 127C192 129.312 190.131 131.187 187.826 131.187C185.521 131.187 183.652 129.312 183.652 127C183.652 124.688 185.521 122.813 187.826 122.813C190.131 122.813 192 124.688 192 127Z" fill="#D0D0D0"/>
<path d="M192 127C192 129.312 190.131 131.187 187.826 131.187C185.521 131.187 183.652 129.312 183.652 127C183.652 124.688 185.521 122.813 187.826 122.813C190.131 122.813 192 124.688 192 127Z" fill="url(#paint11_linear)"/>
<path d="M8.34779 188.407C8.34779 190.719 6.47907 192.593 4.17389 192.593C1.86872 192.593 0 190.719 0 188.407C0 186.094 1.86872 184.22 4.17389 184.22C6.47907 184.22 8.34779 186.094 8.34779 188.407Z" fill="#D0D0D0"/>
<path d="M8.34779 188.407C8.34779 190.719 6.47907 192.593 4.17389 192.593C1.86872 192.593 0 190.719 0 188.407C0 186.094 1.86872 184.22 4.17389 184.22C6.47907 184.22 8.34779 186.094 8.34779 188.407Z" fill="url(#paint12_linear)"/>
<path d="M69.5655 188.407C69.5655 190.719 67.6968 192.593 65.3916 192.593C63.0864 192.593 61.2177 190.719 61.2177 188.407C61.2177 186.094 63.0864 184.22 65.3916 184.22C67.6968 184.22 69.5655 186.094 69.5655 188.407Z" fill="#D0D0D0"/>
<path d="M69.5655 188.407C69.5655 190.719 67.6968 192.593 65.3916 192.593C63.0864 192.593 61.2177 190.719 61.2177 188.407C61.2177 186.094 63.0864 184.22 65.3916 184.22C67.6968 184.22 69.5655 186.094 69.5655 188.407Z" fill="url(#paint13_linear)"/>
<path d="M130.782 188.407C130.782 190.719 128.914 192.593 126.608 192.593C124.303 192.593 122.434 190.719 122.434 188.407C122.434 186.094 124.303 184.22 126.608 184.22C128.914 184.22 130.782 186.094 130.782 188.407Z" fill="#D0D0D0"/>
<path d="M130.782 188.407C130.782 190.719 128.914 192.593 126.608 192.593C124.303 192.593 122.434 190.719 122.434 188.407C122.434 186.094 124.303 184.22 126.608 184.22C128.914 184.22 130.782 186.094 130.782 188.407Z" fill="url(#paint14_linear)"/>
<path d="M192 188.407C192 190.719 190.131 192.593 187.826 192.593C185.521 192.593 183.652 190.719 183.652 188.407C183.652 186.094 185.521 184.22 187.826 184.22C190.131 184.22 192 186.094 192 188.407Z" fill="#D0D0D0"/>
<path d="M192 188.407C192 190.719 190.131 192.593 187.826 192.593C185.521 192.593 183.652 190.719 183.652 188.407C183.652 186.094 185.521 184.22 187.826 184.22C190.131 184.22 192 186.094 192 188.407Z" fill="url(#paint15_linear)"/>
<path d="M8.34779 249.813C8.34779 252.126 6.47907 254 4.17389 254C1.86872 254 0 252.126 0 249.813C0 247.501 1.86872 245.626 4.17389 245.626C6.47907 245.626 8.34779 247.501 8.34779 249.813Z" fill="#D0D0D0"/>
<path d="M8.34779 249.813C8.34779 252.126 6.47907 254 4.17389 254C1.86872 254 0 252.126 0 249.813C0 247.501 1.86872 245.626 4.17389 245.626C6.47907 245.626 8.34779 247.501 8.34779 249.813Z" fill="url(#paint16_linear)"/>
<path d="M69.5655 249.813C69.5655 252.126 67.6968 254 65.3916 254C63.0864 254 61.2177 252.126 61.2177 249.813C61.2177 247.501 63.0864 245.626 65.3916 245.626C67.6968 245.626 69.5655 247.501 69.5655 249.813Z" fill="#D0D0D0"/>
<path d="M69.5655 249.813C69.5655 252.126 67.6968 254 65.3916 254C63.0864 254 61.2177 252.126 61.2177 249.813C61.2177 247.501 63.0864 245.626 65.3916 245.626C67.6968 245.626 69.5655 247.501 69.5655 249.813Z" fill="url(#paint17_linear)"/>
<path d="M130.782 249.813C130.782 252.126 128.914 254 126.608 254C124.303 254 122.434 252.126 122.434 249.813C122.434 247.501 124.303 245.626 126.608 245.626C128.914 245.626 130.782 247.501 130.782 249.813Z" fill="#D0D0D0"/>
<path d="M130.782 249.813C130.782 252.126 128.914 254 126.608 254C124.303 254 122.434 252.126 122.434 249.813C122.434 247.501 124.303 245.626 126.608 245.626C128.914 245.626 130.782 247.501 130.782 249.813Z" fill="url(#paint18_linear)"/>
<path d="M192 249.813C192 252.126 190.131 254 187.826 254C185.521 254 183.652 252.126 183.652 249.813C183.652 247.501 185.521 245.626 187.826 245.626C190.131 245.626 192 247.501 192 249.813Z" fill="#D0D0D0"/>
<path d="M192 249.813C192 252.126 190.131 254 187.826 254C185.521 254 183.652 252.126 183.652 249.813C183.652 247.501 185.521 245.626 187.826 245.626C190.131 245.626 192 247.501 192 249.813Z" fill="url(#paint19_linear)"/>
<defs>
<linearGradient id="paint0_linear" x1="173.2" y1="2.78355" x2="-16.0645" y2="52.781" gradientUnits="userSpaceOnUse">
<stop stop-color="#0FA5A3"/>
<stop offset="1" stop-color="#57E6A0"/>
</linearGradient>
<linearGradient id="paint1_linear" x1="173.2" y1="2.78355" x2="-16.0645" y2="52.781" gradientUnits="userSpaceOnUse">
<stop stop-color="#0FA5A3"/>
<stop offset="1" stop-color="#57E6A0"/>
</linearGradient>
<linearGradient id="paint2_linear" x1="173.2" y1="2.78355" x2="-16.0645" y2="52.781" gradientUnits="userSpaceOnUse">
<stop stop-color="#0FA5A3"/>
<stop offset="1" stop-color="#57E6A0"/>
</linearGradient>
<linearGradient id="paint3_linear" x1="173.2" y1="2.78355" x2="-16.0645" y2="52.781" gradientUnits="userSpaceOnUse">
<stop stop-color="#0FA5A3"/>
<stop offset="1" stop-color="#57E6A0"/>
</linearGradient>
<linearGradient id="paint4_linear" x1="173.2" y1="2.78355" x2="-16.0645" y2="52.781" gradientUnits="userSpaceOnUse">
<stop stop-color="#0FA5A3"/>
<stop offset="1" stop-color="#57E6A0"/>
</linearGradient>
<linearGradient id="paint5_linear" x1="173.2" y1="2.78355" x2="-16.0645" y2="52.781" gradientUnits="userSpaceOnUse">
<stop stop-color="#0FA5A3"/>
<stop offset="1" stop-color="#57E6A0"/>
</linearGradient>
<linearGradient id="paint6_linear" x1="173.2" y1="2.78355" x2="-16.0645" y2="52.781" gradientUnits="userSpaceOnUse">
<stop stop-color="#0FA5A3"/>
<stop offset="1" stop-color="#57E6A0"/>
</linearGradient>
<linearGradient id="paint7_linear" x1="173.2" y1="2.78355" x2="-16.0645" y2="52.781" gradientUnits="userSpaceOnUse">
<stop stop-color="#0FA5A3"/>
<stop offset="1" stop-color="#57E6A0"/>
</linearGradient>
<linearGradient id="paint8_linear" x1="173.2" y1="2.78355" x2="-16.0645" y2="52.781" gradientUnits="userSpaceOnUse">
<stop stop-color="#0FA5A3"/>
<stop offset="1" stop-color="#57E6A0"/>
</linearGradient>
<linearGradient id="paint9_linear" x1="173.2" y1="2.78355" x2="-16.0645" y2="52.781" gradientUnits="userSpaceOnUse">
<stop stop-color="#0FA5A3"/>
<stop offset="1" stop-color="#57E6A0"/>
</linearGradient>
<linearGradient id="paint10_linear" x1="173.2" y1="2.78355" x2="-16.0645" y2="52.781" gradientUnits="userSpaceOnUse">
<stop stop-color="#0FA5A3"/>
<stop offset="1" stop-color="#57E6A0"/>
</linearGradient>
<linearGradient id="paint11_linear" x1="173.2" y1="2.78355" x2="-16.0645" y2="52.781" gradientUnits="userSpaceOnUse">
<stop stop-color="#0FA5A3"/>
<stop offset="1" stop-color="#57E6A0"/>
</linearGradient>
<linearGradient id="paint12_linear" x1="173.2" y1="2.78355" x2="-16.0645" y2="52.781" gradientUnits="userSpaceOnUse">
<stop stop-color="#0FA5A3"/>
<stop offset="1" stop-color="#57E6A0"/>
</linearGradient>
<linearGradient id="paint13_linear" x1="173.2" y1="2.78355" x2="-16.0645" y2="52.781" gradientUnits="userSpaceOnUse">
<stop stop-color="#0FA5A3"/>
<stop offset="1" stop-color="#57E6A0"/>
</linearGradient>
<linearGradient id="paint14_linear" x1="173.2" y1="2.78355" x2="-16.0645" y2="52.781" gradientUnits="userSpaceOnUse">
<stop stop-color="#0FA5A3"/>
<stop offset="1" stop-color="#57E6A0"/>
</linearGradient>
<linearGradient id="paint15_linear" x1="173.2" y1="2.78355" x2="-16.0645" y2="52.781" gradientUnits="userSpaceOnUse">
<stop stop-color="#0FA5A3"/>
<stop offset="1" stop-color="#57E6A0"/>
</linearGradient>
<linearGradient id="paint16_linear" x1="173.2" y1="2.78355" x2="-16.0645" y2="52.781" gradientUnits="userSpaceOnUse">
<stop stop-color="#0FA5A3"/>
<stop offset="1" stop-color="#57E6A0"/>
</linearGradient>
<linearGradient id="paint17_linear" x1="173.2" y1="2.78355" x2="-16.0645" y2="52.781" gradientUnits="userSpaceOnUse">
<stop stop-color="#0FA5A3"/>
<stop offset="1" stop-color="#57E6A0"/>
</linearGradient>
<linearGradient id="paint18_linear" x1="173.2" y1="2.78355" x2="-16.0645" y2="52.781" gradientUnits="userSpaceOnUse">
<stop stop-color="#0FA5A3"/>
<stop offset="1" stop-color="#57E6A0"/>
</linearGradient>
<linearGradient id="paint19_linear" x1="173.2" y1="2.78355" x2="-16.0645" y2="52.781" gradientUnits="userSpaceOnUse">
<stop stop-color="#0FA5A3"/>
<stop offset="1" stop-color="#57E6A0"/>
</linearGradient>
</defs>
</svg>
