<svg width="54" height="54" viewBox="0 0 54 54" fill="none" xmlns="http://www.w3.org/2000/svg">
<path d="M45.9453 22.9046L28.5978 5.17458C28.3886 4.96369 28.1397 4.7963 27.8656 4.68207C27.5914 4.56784 27.2973 4.50903 27.0003 4.50903C26.7032 4.50903 26.4091 4.56784 26.135 4.68207C25.8608 4.7963 25.6119 4.96369 25.4028 5.17458L8.05526 22.9271C7.63549 23.3502 7.30397 23.8526 7.07995 24.4049C6.85592 24.9572 6.74386 25.5486 6.75026 26.1446V44.9996C6.74852 46.1514 7.1885 47.26 7.9796 48.0972C8.77071 48.9343 9.8527 49.4362 11.0028 49.4996H42.9978C44.1478 49.4362 45.2298 48.9343 46.0209 48.0972C46.812 47.26 47.252 46.1514 47.2503 44.9996V26.1446C47.252 24.9362 46.7841 23.7744 45.9453 22.9046ZM22.5003 44.9996V31.4996H31.5003V44.9996H22.5003ZM42.7503 44.9996H36.0003V29.2496C36.0003 28.6528 35.7632 28.0805 35.3412 27.6586C34.9193 27.2366 34.347 26.9996 33.7503 26.9996H20.2503C19.6535 26.9996 19.0812 27.2366 18.6593 27.6586C18.2373 28.0805 18.0003 28.6528 18.0003 29.2496V44.9996H11.2503V26.0546L27.0003 9.96708L42.7503 26.1446V44.9996Z" fill="black"/>
<path d="M45.9453 22.9046L28.5978 5.17458C28.3886 4.96369 28.1397 4.7963 27.8656 4.68207C27.5914 4.56784 27.2973 4.50903 27.0003 4.50903C26.7032 4.50903 26.4091 4.56784 26.135 4.68207C25.8608 4.7963 25.6119 4.96369 25.4028 5.17458L8.05526 22.9271C7.63549 23.3502 7.30397 23.8526 7.07995 24.4049C6.85592 24.9572 6.74386 25.5486 6.75026 26.1446V44.9996C6.74852 46.1514 7.1885 47.26 7.9796 48.0972C8.77071 48.9343 9.8527 49.4362 11.0028 49.4996H42.9978C44.1478 49.4362 45.2298 48.9343 46.0209 48.0972C46.812 47.26 47.252 46.1514 47.2503 44.9996V26.1446C47.252 24.9362 46.7841 23.7744 45.9453 22.9046ZM22.5003 44.9996V31.4996H31.5003V44.9996H22.5003ZM42.7503 44.9996H36.0003V29.2496C36.0003 28.6528 35.7632 28.0805 35.3412 27.6586C34.9193 27.2366 34.347 26.9996 33.7503 26.9996H20.2503C19.6535 26.9996 19.0812 27.2366 18.6593 27.6586C18.2373 28.0805 18.0003 28.6528 18.0003 29.2496V44.9996H11.2503V26.0546L27.0003 9.96708L42.7503 26.1446V44.9996Z" fill="url(#paint0_linear)"/>
<defs>
<linearGradient id="paint0_linear" x1="43.2846" y1="5.00208" x2="4.42156" y2="17.2281" gradientUnits="userSpaceOnUse">
<stop stop-color="#0FA5A3"/>
<stop offset="1" stop-color="#57E6A0"/>
</linearGradient>
</defs>
</svg>
