<svg width="30" height="30" viewBox="0 0 30 30" fill="none" xmlns="http://www.w3.org/2000/svg">
<path d="M12.6013 5.11244C13.2638 5.56869 13.8975 5.86994 14.4187 5.93744C14.1332 6.5039 13.9351 7.11037 13.8312 7.73619C12.9912 7.55119 12.1925 7.10743 11.5363 6.65493C11.2113 6.43119 10.9062 6.19244 10.625 5.95869V8.74993C10.6251 8.93702 10.5691 9.11984 10.4644 9.27488C10.3597 9.42992 10.2111 9.55009 10.0375 9.61994L10.03 9.62243C9.95968 9.6506 9.89046 9.68146 9.8225 9.71493C9.67625 9.78493 9.46375 9.88994 9.215 10.0324C8.60363 10.376 8.0397 10.7979 7.5375 11.2874C6.97125 11.8549 6.62125 12.6162 6.425 13.2074C6.17125 13.9662 5.52625 14.6649 4.60875 14.8174C4.5434 14.8284 4.48405 14.8621 4.44125 14.9127C4.39845 14.9633 4.37498 15.0274 4.375 15.0937V17.2849C4.375 17.4912 4.525 17.6687 4.72875 17.7024C5.50875 17.8324 6.1225 18.3412 6.46875 18.9599C6.7825 19.5224 7.34125 20.3899 8.1625 21.2124C8.80125 21.8499 9.545 22.2599 10.1437 22.5112C10.4575 22.6419 10.781 22.7481 11.1112 22.8287H11.1175V22.8299C11.3308 22.8717 11.5231 22.9863 11.6612 23.1541C11.7994 23.3219 11.875 23.5325 11.875 23.7499V25.3124C11.875 25.4849 12.015 25.6249 12.1875 25.6249H13.75C13.75 25.1277 13.9475 24.6507 14.2992 24.2991C14.6508 23.9475 15.1277 23.7499 15.625 23.7499H18.125C18.6223 23.7499 19.0992 23.9475 19.4508 24.2991C19.8025 24.6507 20 25.1277 20 25.6249H21.5625C21.6454 25.6249 21.7249 25.592 21.7835 25.5334C21.8421 25.4748 21.875 25.3953 21.875 25.3124V22.4999C21.875 22.1462 22.075 21.8224 22.39 21.6624L22.4062 21.6549C22.5588 21.568 22.7065 21.4728 22.8487 21.3699C23.1525 21.1499 23.5637 20.8074 23.9762 20.3274C24.7913 19.3762 25.625 17.8674 25.625 15.6249C25.625 14.3662 25.39 13.3499 24.9887 12.5149C25.4362 11.9224 25.7738 11.2537 25.9862 10.5462C26.1112 10.7149 26.2287 10.8912 26.3387 11.0749C27.0937 12.3224 27.5 13.8287 27.5 15.6249C27.5 18.3824 26.4587 20.3124 25.4 21.5474C24.9175 22.1109 24.3627 22.6081 23.75 23.0262V25.3137C23.7497 25.8936 23.5191 26.4497 23.1089 26.8597C22.6987 27.2696 22.1424 27.4999 21.5625 27.4999H20C19.5027 27.4999 19.0258 27.3024 18.6742 26.9508C18.3225 26.5991 18.125 26.1222 18.125 25.6249H15.625C15.625 26.1222 15.4275 26.5991 15.0758 26.9508C14.7242 27.3024 14.2473 27.4999 13.75 27.4999H12.1875C11.6073 27.4999 11.0509 27.2695 10.6407 26.8592C10.2305 26.449 10 25.8926 10 25.3124V24.4574C9.80416 24.3913 9.61071 24.3184 9.42 24.2387C8.45756 23.8434 7.58063 23.2657 6.8375 22.5374C6.05129 21.7449 5.37637 20.8492 4.83125 19.8749C4.79088 19.7939 4.73306 19.7229 4.66195 19.6669C4.59084 19.6109 4.50821 19.5714 4.42 19.5512C3.88351 19.4618 3.39611 19.185 3.04454 18.77C2.69296 18.3551 2.50001 17.8288 2.5 17.2849V15.0937C2.5 14.0399 3.2625 13.1412 4.3 12.9687C4.40875 12.9499 4.57 12.8424 4.64625 12.6137C4.88625 11.8937 5.3525 10.8212 6.2125 9.96243C6.8323 9.35493 7.52907 8.8313 8.285 8.40493C8.455 8.30743 8.6125 8.22368 8.75 8.15368V4.58744C8.75 3.41494 10.1625 2.93369 10.925 3.69244C11.3375 4.10369 11.9375 4.65243 12.6013 5.10993V5.11244Z" fill="#64FFB5"/>
<path d="M16.3374 11.0599C15.7249 10.8062 15.2074 10.3249 15.0849 9.67241C14.8627 8.45922 15.0965 7.2067 15.7414 6.15538C16.3863 5.10406 17.3969 4.32805 18.5791 3.97636C19.7612 3.62467 21.0317 3.7221 22.1464 4.24993C23.2611 4.77776 24.1415 5.69879 24.6186 6.83616C25.0579 7.89624 25.1192 9.07513 24.7924 10.1751C24.4656 11.2751 23.7705 12.2292 22.8236 12.8774C22.2761 13.2524 21.5699 13.2274 20.9574 12.9737L16.3374 11.0612V11.0599ZM21.8299 11.2849C22.4472 10.8348 22.8785 10.1743 23.0423 9.42799C23.206 8.6817 23.0909 7.90129 22.7187 7.23405C22.3465 6.56681 21.7429 6.05891 21.0218 5.80622C20.3008 5.55352 19.5122 5.57351 18.8049 5.86241C18.1541 6.13153 17.6132 6.6124 17.2697 7.22718C16.9263 7.84196 16.8004 8.55466 16.9124 9.24991L16.9386 9.26866C16.9749 9.29234 17.0134 9.31243 17.0536 9.32866L21.6736 11.2412C21.7233 11.2623 21.7753 11.2774 21.8286 11.2862L21.8299 11.2849Z" fill="#64FFB5"/>
<path d="M11.25 12.5C11.25 12.8315 11.1183 13.1495 10.8839 13.3839C10.6495 13.6183 10.3315 13.75 10 13.75C9.66848 13.75 9.35054 13.6183 9.11612 13.3839C8.8817 13.1495 8.75 12.8315 8.75 12.5C8.75 12.1685 8.8817 11.8505 9.11612 11.6161C9.35054 11.3817 9.66848 11.25 10 11.25C10.3315 11.25 10.6495 11.3817 10.8839 11.6161C11.1183 11.8505 11.25 12.1685 11.25 12.5Z" fill="#64FFB5"/>
</svg>
