<?xml version="1.0" encoding="UTF-8"?>
<!DOCTYPE svg PUBLIC "-//W3C//DTD SVG 1.1//EN" "http://www.w3.org/Graphics/SVG/1.1/DTD/svg11.dtd">
<!-- Creator: CorelDRAW X7 -->
<svg xmlns="http://www.w3.org/2000/svg" xml:space="preserve" width="16.9332mm" height="4.2332mm" version="1.1" style="shape-rendering:geometricPrecision; text-rendering:geometricPrecision; image-rendering:optimizeQuality; fill-rule:evenodd; clip-rule:evenodd"
viewBox="0 0 1693 423"
 xmlns:xlink="http://www.w3.org/1999/xlink">
 <defs>
  <style type="text/css">
   <![CDATA[
    .fil0 {fill:none}
    .fil1 {fill:white}
    .fil2 {fill:url(#id0)}
   ]]>
  </style>
  <linearGradient id="id0" gradientUnits="userSpaceOnUse" x1="1221.85" y1="-113.51" x2="471.47" y2="536.83">
   <stop offset="0" style="stop-opacity:1; stop-color:#0FA5A3"/>
   <stop offset="0.0392157" style="stop-opacity:1; stop-color:#0FA5A3"/>
   <stop offset="1" style="stop-opacity:1; stop-color:#57E6A0"/>
  </linearGradient>
 </defs>
 <g id="Layer_x0020_1">
  <metadata id="CorelCorpID_0Corel-Layer"/>
  <rect class="fil0" width="1693" height="423"/>
  <g id="_1210945605200">
   <path class="fil1" d="M49 78l170 0c5,0 9,1 10,3 2,2 3,5 3,10l0 18c0,6 -1,11 -4,14l-133 183 127 0c5,0 8,1 10,3 2,2 3,6 3,10l0 19c0,5 -1,9 -3,11 -2,2 -6,2 -10,2l-175 0c-5,0 -8,0 -10,-2 -2,-2 -3,-6 -3,-11l0 -19c0,-4 2,-9 5,-13l133 -183 -123 0c-5,0 -8,-1 -10,-3 -2,-2 -3,-5 -3,-10l0 -19c0,-5 1,-8 3,-10 2,-2 5,-3 10,-3zm224 197l0 -46c0,-27 7,-47 23,-61 15,-15 37,-22 66,-22 29,0 51,7 66,22 16,14 23,34 23,58l0 23c0,11 -5,17 -17,17l-116 0 0 14c0,13 3,22 11,29 7,6 18,10 32,10 22,0 37,-7 46,-21 3,-4 6,-7 8,-7 3,-1 7,0 12,3l13 7c9,4 10,10 5,19 -15,25 -43,37 -84,37 -29,0 -51,-7 -66,-21 -15,-15 -22,-35 -22,-61zm134 -43l0 -9c0,-13 -4,-22 -12,-29 -7,-7 -18,-10 -33,-10 -14,0 -25,3 -33,10 -8,7 -11,16 -11,29l0 9 89 0zm109 -73c22,-9 47,-13 76,-13 27,0 47,7 60,20 14,13 21,32 21,57l0 116c0,5 -1,8 -3,10 -2,2 -5,2 -9,2l-22 0c-4,0 -7,0 -9,-2 -1,-2 -2,-5 -2,-10l0 -114c0,-26 -14,-38 -42,-38 -13,0 -25,1 -37,5 -2,1 -3,2 -3,4l0 143c0,5 -1,8 -3,10 -1,2 -4,2 -9,2l-21 0c-4,0 -7,0 -9,-2 -2,-2 -3,-5 -3,-10l0 -158c0,-6 1,-11 3,-13 2,-4 6,-6 12,-9zm260 -81l0 261c0,5 -1,8 -2,10 -2,2 -5,2 -10,2l-20 0c-5,0 -8,0 -10,-2 -2,-2 -2,-5 -2,-10l0 -261c0,-4 0,-7 2,-9 2,-2 5,-3 10,-3l20 0c5,0 8,1 10,3 1,2 2,5 2,9zm55 202l0 -57c0,-24 8,-43 23,-57 16,-13 37,-20 66,-20 28,0 50,7 65,20 16,14 24,33 24,57l0 57c0,24 -8,43 -24,57 -15,13 -37,20 -65,20 -29,0 -50,-7 -66,-20 -15,-14 -23,-33 -23,-57zm133 0l0 -57c0,-12 -4,-21 -12,-27 -7,-6 -18,-10 -32,-10 -14,0 -25,4 -33,10 -8,6 -11,15 -11,27l0 57c0,12 3,21 11,27 8,7 19,10 33,10 14,0 25,-3 32,-10 8,-6 12,-15 12,-27zm95 -72c0,-19 7,-34 21,-45 13,-12 33,-17 59,-17 41,0 68,14 82,41 4,8 2,14 -6,18l-17 6c-5,2 -8,3 -10,2 -2,0 -4,-3 -7,-7 -7,-13 -21,-20 -41,-20 -24,0 -37,7 -37,21 0,8 4,14 10,17 6,3 18,5 36,7 27,2 47,8 59,17 13,9 19,24 19,45 0,20 -7,35 -22,47 -14,11 -35,17 -61,17 -46,0 -74,-15 -86,-46 -3,-8 -1,-14 8,-17l17 -5c7,-3 13,-1 16,7 5,14 20,22 43,22 28,0 41,-8 41,-23 0,-8 -3,-14 -9,-17 -7,-4 -19,-6 -37,-8 -18,-2 -33,-5 -44,-9 -7,-3 -13,-6 -18,-11 -10,-9 -16,-23 -16,-42zm206 67l0 -46c0,-27 7,-47 23,-61 15,-15 37,-22 66,-22 29,0 51,7 66,22 16,14 23,34 23,58l0 23c0,11 -5,17 -17,17l-116 0 0 14c0,13 3,22 11,29 7,6 18,10 32,10 22,0 37,-7 46,-21 3,-4 6,-7 8,-7 3,-1 7,0 12,3l13 7c9,4 10,10 5,19 -15,25 -43,37 -84,37 -29,0 -51,-7 -66,-21 -15,-15 -22,-35 -22,-61zm134 -43l0 -9c0,-13 -4,-22 -12,-29 -7,-7 -18,-10 -33,-10 -14,0 -25,3 -33,10 -8,7 -11,16 -11,29l0 9 89 0zm89 47l0 -52c0,-27 7,-47 20,-61 14,-13 34,-20 60,-20 13,0 28,2 46,5l0 -73c0,-4 1,-7 3,-9 1,-2 5,-3 9,-3l21 0c5,0 8,1 9,3 2,2 3,5 3,9l0 246c0,6 -1,10 -3,13 -2,3 -6,5 -12,8 -23,8 -47,12 -72,12 -56,0 -84,-26 -84,-78zm126 29l0 -116c-15,-4 -27,-5 -37,-5 -30,0 -44,13 -44,41l0 50c0,25 14,38 43,38 13,0 25,-1 35,-4 2,-1 3,-2 3,-4z"/>
   <path class="fil2" d="M49 78l170 0c5,0 9,1 10,3 2,2 3,5 3,10l0 18c0,6 -1,11 -4,14l-133 183 127 0c5,0 8,1 10,3 2,2 3,6 3,10l0 19c0,5 -1,9 -3,11 -2,2 -6,2 -10,2l-175 0c-5,0 -8,0 -10,-2 -2,-2 -3,-6 -3,-11l0 -19c0,-4 2,-9 5,-13l133 -183 -123 0c-5,0 -8,-1 -10,-3 -2,-2 -3,-5 -3,-10l0 -19c0,-5 1,-8 3,-10 2,-2 5,-3 10,-3zm224 197l0 -46c0,-27 7,-47 23,-61 15,-15 37,-22 66,-22 29,0 51,7 66,22 16,14 23,34 23,58l0 23c0,11 -5,17 -17,17l-116 0 0 14c0,13 3,22 11,29 7,6 18,10 32,10 22,0 37,-7 46,-21 3,-4 6,-7 8,-7 3,-1 7,0 12,3l13 7c9,4 10,10 5,19 -15,25 -43,37 -84,37 -29,0 -51,-7 -66,-21 -15,-15 -22,-35 -22,-61zm134 -43l0 -9c0,-13 -4,-22 -12,-29 -7,-7 -18,-10 -33,-10 -14,0 -25,3 -33,10 -8,7 -11,16 -11,29l0 9 89 0zm109 -73c22,-9 47,-13 76,-13 27,0 47,7 60,20 14,13 21,32 21,57l0 116c0,5 -1,8 -3,10 -2,2 -5,2 -9,2l-22 0c-4,0 -7,0 -9,-2 -1,-2 -2,-5 -2,-10l0 -114c0,-26 -14,-38 -42,-38 -13,0 -25,1 -37,5 -2,1 -3,2 -3,4l0 143c0,5 -1,8 -3,10 -1,2 -4,2 -9,2l-21 0c-4,0 -7,0 -9,-2 -2,-2 -3,-5 -3,-10l0 -158c0,-6 1,-11 3,-13 2,-4 6,-6 12,-9zm260 -81l0 261c0,5 -1,8 -2,10 -2,2 -5,2 -10,2l-20 0c-5,0 -8,0 -10,-2 -2,-2 -2,-5 -2,-10l0 -261c0,-4 0,-7 2,-9 2,-2 5,-3 10,-3l20 0c5,0 8,1 10,3 1,2 2,5 2,9zm55 202l0 -57c0,-24 8,-43 23,-57 16,-13 37,-20 66,-20 28,0 50,7 65,20 16,14 24,33 24,57l0 57c0,24 -8,43 -24,57 -15,13 -37,20 -65,20 -29,0 -50,-7 -66,-20 -15,-14 -23,-33 -23,-57zm133 0l0 -57c0,-12 -4,-21 -12,-27 -7,-6 -18,-10 -32,-10 -14,0 -25,4 -33,10 -8,6 -11,15 -11,27l0 57c0,12 3,21 11,27 8,7 19,10 33,10 14,0 25,-3 32,-10 8,-6 12,-15 12,-27zm95 -72c0,-19 7,-34 21,-45 13,-12 33,-17 59,-17 41,0 68,14 82,41 4,8 2,14 -6,18l-17 6c-5,2 -8,3 -10,2 -2,0 -4,-3 -7,-7 -7,-13 -21,-20 -41,-20 -24,0 -37,7 -37,21 0,8 4,14 10,17 6,3 18,5 36,7 27,2 47,8 59,17 13,9 19,24 19,45 0,20 -7,35 -22,47 -14,11 -35,17 -61,17 -46,0 -74,-15 -86,-46 -3,-8 -1,-14 8,-17l17 -5c7,-3 13,-1 16,7 5,14 20,22 43,22 28,0 41,-8 41,-23 0,-8 -3,-14 -9,-17 -7,-4 -19,-6 -37,-8 -18,-2 -33,-5 -44,-9 -7,-3 -13,-6 -18,-11 -10,-9 -16,-23 -16,-42zm206 67l0 -46c0,-27 7,-47 23,-61 15,-15 37,-22 66,-22 29,0 51,7 66,22 16,14 23,34 23,58l0 23c0,11 -5,17 -17,17l-116 0 0 14c0,13 3,22 11,29 7,6 18,10 32,10 22,0 37,-7 46,-21 3,-4 6,-7 8,-7 3,-1 7,0 12,3l13 7c9,4 10,10 5,19 -15,25 -43,37 -84,37 -29,0 -51,-7 -66,-21 -15,-15 -22,-35 -22,-61zm134 -43l0 -9c0,-13 -4,-22 -12,-29 -7,-7 -18,-10 -33,-10 -14,0 -25,3 -33,10 -8,7 -11,16 -11,29l0 9 89 0zm89 47l0 -52c0,-27 7,-47 20,-61 14,-13 34,-20 60,-20 13,0 28,2 46,5l0 -73c0,-4 1,-7 3,-9 1,-2 5,-3 9,-3l21 0c5,0 8,1 9,3 2,2 3,5 3,9l0 246c0,6 -1,10 -3,13 -2,3 -6,5 -12,8 -23,8 -47,12 -72,12 -56,0 -84,-26 -84,-78zm126 29l0 -116c-15,-4 -27,-5 -37,-5 -30,0 -44,13 -44,41l0 50c0,25 14,38 43,38 13,0 25,-1 35,-4 2,-1 3,-2 3,-4z"/>
  </g>
 </g>
</svg>
