<svg width="1000" height="618" viewBox="0 0 1000 618" fill="none" xmlns="http://www.w3.org/2000/svg">
<g clip-path="url(#clip0)">
<path d="M1000 76.8539V83.009L989.756 92.2888L981.944 99.3617L973.014 99.0642L966.242 102.761L968.077 110.157V115.394L952.352 123.112L949.599 133.907V154.257L961.927 169.046L960.39 175.224L947.442 180.461V188.775L938.141 193.811L932.014 197.111H921.844L905.821 213.464L908.276 215.92L911.054 234.408L906.64 244.558L900.586 258.48L896.594 257.859L895.677 251.061L885.73 250.514L892.576 262.476L900.589 272.031L897.191 286.225L891.636 295.306H886.203L887.021 284.984L882.309 277.565L875.415 273.942L874.696 264.637L876.853 252.924L873.479 250.766L865.766 258.782L868.544 264.637L869.164 277.591L874.099 280.047L879.334 289.924L880.475 295.309L881.168 298.56L879.011 305.656L887.023 306.276L893.199 309.007L891.661 316.749L896.896 320.148L896.599 323.224L891.341 328.162L900.593 335.258V344.514L898.014 346.078L893.501 348.831L897.816 356.525L894.741 364.243L870.383 368.237V377.792L863.313 391.366L851.903 393.847L850.142 396.824L843.568 408.016L843.891 414.194L829.108 429.903H822.933L817.998 440.698L809.985 445.015L809.835 447.596L807.825 479.559L813.678 487.275L816.158 498.045L816.481 498.342L822.633 503.602V511.941L837.416 524.572L838.953 538.766L844.485 549.114L855.301 569.288V599.86H832.48C832.48 599.86 832.513 599.595 832.48 599.512C831.614 597.261 826.005 592.365 826.005 592.365L817.398 593.034V582.536H811.52L809.065 578.542V572.687L804.13 572.364L794.283 560.949L795.523 554.473L790.588 555.094L788.108 550.479L788.43 549.114L790.588 539.684L789.025 523.654L783.793 521.818L768.093 504.548L754.822 503.605L739.12 512.862L732.945 514.4L723.395 500.231L697.921 498.344L694.127 498.072L693.731 498.344L685.794 504.225L681.479 499.288L676.023 504.126L653.129 504.225V514.102L648.814 519.96L660.521 531.995L654.046 535.99L638.321 528.594L629.986 538.496L615.823 538.448L611.831 524.577L595.486 519.962V527.06L592.111 529.219L569.588 523.361H560.038L529.53 536.91V543.088L520.601 549.118L517.203 551.401L503.635 554.18L498.7 561.576L491.928 562.196L488.233 570.833L483.62 572.074L483.917 589.964C483.074 592.916 483.173 596.442 483.694 599.865C484.86 607.558 488.233 614.928 488.233 614.928L484.215 618.005L467.595 613.067C456.879 610.982 450.282 605.252 446.312 599.865C442.02 594.083 440.757 588.724 440.757 588.724C439.542 580.385 437.682 577.308 437.682 577.308C427.512 571.451 419.799 549.863 419.799 549.863C419.7 549.591 419.601 549.367 419.477 549.118C412.11 531.426 401.617 522.741 401.617 522.741H391.447L388.372 519.342L371.109 518.721V530.757L360.319 539.071C344.296 535.076 332.96 515.149 332.96 515.149L333.506 504.23L328.645 498.349L298.384 461.672L265.693 459.216L262.941 471.872L204.675 464.774L176.249 447.603L137.802 424.375V413.58H90.9309L89.4188 396.831L88.7733 389.535L80.7609 386.458V377.201H73.3708L72.2298 370.525L65.9784 368.862L54.2455 354.371L38.8429 352.535L33.6104 348.218L34.3296 346.085L34.3549 346.059L36.6854 339.261L34.8505 335.887L33.2877 331.868L35.4453 326.31L32.8405 319.857L31.4275 316.382L25.5979 301.964L22.8203 299.471V295.774L27.1354 291.16V286.543L20.0404 278.204L20.6605 260.016L14.1878 252.917L14.8078 243.04L7.59064 232.121L8.33518 217.505L10.4927 208.199L0 196.486L5.87796 188.47L16.6427 170.902L15.4279 162.266L18.5029 156.708L19.743 134.523L31.3514 113.454L39.463 98.7391V90.723L42.7616 85.9078L45.613 81.789L51.7883 62.0601V56.5024L57.3435 50.0245L53.9458 43.8464L54.3423 33.7963L59.4757 28.7827L54.5636 28.0886L54.861 20.7182L51.786 19.18V14.2449L54.861 5.93135H59.1761L61.9537 13.3271L72.1237 17.3467L82.9138 19.1823V26.6012L78.3013 33.0791L72.126 35.2122L73.3662 45.0894H82.2961L88.4714 37.6936V29.0572L90.9263 25.9808L85.9911 19.5029L89.5386 13.3248L90.9286 9.95093L88.1533 7.17205L90.9309 0L129.131 11.7866L176.309 24.4173L192.456 27.9894L194.489 28.4368L218.921 32.3826L274.927 41.3903L276.688 41.614L296.332 43.9709L396.145 56.055L405.321 56.477L412.093 56.7745L482.959 59.8762L493.896 59.1314L523.636 57.1204V49.1043L531.969 54.0187V64.1933L549.232 70.3714L554.167 64.8136L567.089 69.1307L570.81 75.3088L583.435 79.6259L593.307 76.5241L614.862 79.9234L620.12 71.6098L626.57 70.9895L635.202 61.7327L634.608 58.3334L637.062 53.7166L660.478 54.6344L664.793 57.4133L673.748 74.361L682.678 74.6839L684.513 69.7464L692.225 74.361L692.846 82.4002L697.781 85.774L698.004 92.275L698.078 94.731L703.311 95.0285V101.504L709.166 105.821L711.646 111.356L732.606 110.141L764.158 109.495L776.684 121.853L786.531 136.643L782.811 143.019H769.118L762.199 135.102L760.041 136.343L760.91 143.019L761.578 148.056L755.103 159.768L759.419 177.659L749.546 185.675L749.076 193.791L748.629 201.41L738.458 204.784V210.044L749.869 210.665L764.504 193.791L766.191 191.856L781.296 192.774L794.566 182.302L803.794 182.599L806.249 177.662L804.116 173.345L794.244 174.585L792.706 167.489L802.554 157.935L819.196 149.001L832.169 149.596L830.309 143.738L832.019 143.019L850.944 135.102L855.582 125.548L868.53 114.132L917.84 102.692L920.915 94.4035L928.529 92.2704L928.602 92.245L930.463 88.5483L930.76 82.693L935.1 81.1549L934.778 74.6769L931.083 66.9583L936.168 41.5218H970.124L978.235 66.9583L985.628 67.2812L986.497 75.2212L1000 76.8539Z" fill="#2E2E2E"/>
<path d="M169.5 337.5L195.5 198.5L158.499 190L92.9991 174C87.1661 195.667 75.4 239.6 75 242C74.6 244.4 75.1667 246.333 75.5 247L153.499 362.5C153.166 360.833 159.999 359.5 155 345.5C154.6 340.7 155.833 337.833 156.5 337L157.5 335.5L163.5 340.5C163.833 340.833 164.599 342 164.999 342C165.399 342 165.833 342.167 166 342.5L167 342L168 341.5L169.5 337.5Z" fill="#3CCFAF"/>
<path d="M405 309.5V250C401.667 249.667 390.3 249.2 371.5 248C352.7 246.8 302.667 239.833 280 236.5L266.5 332.5L400.5 345C400.833 345.167 401.6 345 402 343C402.4 341 404.167 319.833 405 309.5Z" fill="#3CCFAF"/>
<path d="M184.746 23.6913C184.746 23.6913 170.57 58.8851 173.195 62.5611C175.82 66.237 170.57 84.6238 170.57 84.6238L167.944 92.5038C167.944 92.5038 173.721 100.907 173.195 104.586C172.669 108.262 164.27 116.142 164.795 118.242C165.321 120.343 154.293 127.172 155.344 129.798C156.393 132.425 159.019 133.474 157.444 137.679C155.87 141.88 145.368 186.529 145.368 186.529" stroke="white" stroke-width="0.7688" stroke-miterlimit="10"/>
<path d="M48.2345 55.7326C48.2345 55.7326 60.8364 55.2068 62.9363 56.2584C65.0362 57.3076 65.0362 61.5117 65.0362 61.5117C65.0362 61.5117 70.2872 59.4108 71.8616 60.4601C73.436 61.5117 73.9615 67.8143 73.9615 67.8143C73.9615 67.8143 73.9615 72.0161 72.3871 74.117C70.8128 76.2179 73.9615 78.8445 76.0638 79.3703C78.1637 79.8961 82.3635 77.2695 84.4635 77.7953C86.5634 78.3211 94.9654 82.5228 94.9654 82.5228L104.416 83.5744L112.816 81.9993L117.541 85.6776L130.667 84.626C130.667 84.626 140.117 84.626 147.994 87.2527C155.87 89.8793 167.947 92.506 167.947 92.506" stroke="white" stroke-width="0.7688" stroke-miterlimit="10"/>
<path d="M199.448 27.367L193.671 48.9039L196.822 58.359L194.197 63.0866C194.197 63.0866 196.822 68.8657 201.022 70.9666C205.222 73.0675 203.122 86.2009 206.273 87.2502C206.273 87.2502 215.198 85.6751 215.198 87.2502C215.198 88.8252 207.322 101.433 207.322 101.433C207.322 101.433 207.322 105.635 205.747 107.735C204.173 109.836 206.273 110.362 207.847 111.411C209.422 112.461 216.773 109.311 216.247 112.461C215.721 115.613 217.298 121.39 217.298 121.39L222.024 130.845L219.924 136.624C219.924 136.624 223.598 137.15 223.598 138.725C223.598 140.3 223.072 141.878 225.172 143.453C227.272 145.028 231.998 145.554 231.998 145.554C231.998 145.554 239.874 145.554 241.974 146.079C244.074 146.605 248.274 146.079 248.274 146.079C248.274 146.079 252.474 141.352 254.05 142.927C255.625 144.502 257.201 148.704 257.201 148.704" stroke="white" stroke-width="0.7688" stroke-miterlimit="10"/>
<path d="M16.207 151.333C16.207 151.333 181.594 201.761 247.75 206.488" stroke="white" stroke-width="0.7688" stroke-miterlimit="10"/>
<path d="M386.362 53.1058C386.362 53.1058 370.611 218.044 369.56 247.459" stroke="white" stroke-width="0.7688" stroke-miterlimit="10"/>
<path d="M377.962 149.232C371.137 151.859 321.782 145.03 313.383 145.03C304.983 145.03 259.303 137.676 259.303 137.676C257.203 153.434 242.501 230.65 242.501 230.65C242.501 230.65 350.787 249.078 405.173 249.818C405.173 249.818 405.542 335.691 401.103 345.315C401.103 345.315 202.796 329.769 174.308 317.185" stroke="white" stroke-width="0.7688" stroke-miterlimit="10"/>
<path d="M374.286 200.186C374.286 200.186 469.844 207.541 507.121 203.339" stroke="white" stroke-width="0.7688" stroke-miterlimit="10"/>
<path d="M491.369 59.4112C491.369 59.4112 495.044 67.2912 493.995 69.9179C492.944 72.5446 490.844 84.1006 495.046 87.7765C499.246 91.4525 499.771 98.2832 500.297 102.485C500.823 106.687 499.246 114.041 500.297 117.193C501.348 120.346 505.548 129.801 505.548 132.951C505.548 136.104 499.774 144.507 499.774 144.507L505.025 147.66C505.025 147.66 508.176 185.48 507.65 190.733C507.125 195.987 504.499 204.916 506.599 209.118C508.699 213.32 507.125 222.249 509.225 225.401C511.324 228.554 515.001 236.957 516.05 240.11C517.101 243.262 514.476 258.494 519.201 262.696C523.926 266.898 526.552 273.726 528.126 274.778C529.701 275.83 529.177 280.031 534.426 279.505C539.677 278.98 540.726 279.505 538.1 281.606C535.475 283.707 529.698 285.282 531.275 286.86C532.849 288.435 532.849 287.385 534.949 289.486C537.049 291.587 538.1 296.315 538.1 296.315C540.726 296.315 543.351 298.941 543.351 298.941C543.351 298.941 541.777 314.699 542.826 317.326C543.877 319.953 542.826 345.165 544.4 347.266C545.974 349.367 542.3 359.348 544.926 363.55C547.551 367.752 546.5 381.409 546.5 381.409C550.174 387.185 546.5 411.875 549.126 420.804C551.751 429.733 548.6 429.208 548.6 429.208L557 430.259C557 430.259 555.951 459.15 560.151 465.979C564.351 472.807 564.876 473.859 565.402 477.009C565.927 480.161 569.076 482.262 570.127 484.889C571.178 487.516 572.227 494.344 570.127 496.971C568.027 499.597 564.351 504.325 565.927 506.952C567.504 509.578 569.602 515.355 567.502 517.458C565.402 519.559 565.927 525.862 565.927 525.862" stroke="white" stroke-width="0.7688" stroke-miterlimit="10"/>
<path d="M615.282 78.3217C615.282 78.3217 580.104 104.586 577.479 107.736C574.853 110.889 577.479 119.818 577.479 119.818C577.479 119.818 564.877 134.001 565.928 137.677C566.979 141.353 568.028 143.456 568.028 148.707C568.028 153.96 568.028 160.263 572.228 161.838C576.427 163.413 581.678 163.939 585.878 168.141C590.078 172.342 589.553 174.443 593.755 176.544C597.955 178.645 597.955 185.473 597.955 187.574C597.955 189.675 601.629 195.454 601.629 195.454L600.578 201.757L602.152 207.536H607.403L614.228 213.315C614.228 213.315 617.379 215.942 618.428 219.094C619.479 222.247 622.105 226.449 618.954 229.075C615.803 231.702 622.628 232.751 615.803 236.43C608.977 240.106 606.877 238.005 606.352 240.106C605.826 242.206 606.352 251.662 606.352 251.662L599.001 257.964C599.001 257.964 595.327 275.823 600.575 279.501C605.826 283.177 615.801 286.33 617.903 290.531C620.003 294.733 620.003 303.139 623.154 306.289C626.305 309.442 626.828 315.744 626.828 315.744C626.828 315.744 630.505 322.573 635.753 323.098C641.004 323.624 642.053 328.352 642.053 330.453C642.053 332.554 634.702 335.18 640.479 338.333C646.255 341.485 648.355 343.586 648.355 343.586L648.881 348.314L645.73 352.515C645.73 352.515 636.279 353.041 637.853 355.668C639.428 358.295 641.53 359.87 641.53 359.87L642.055 368.273C642.055 368.273 642.055 369.322 641.53 371.949C641.004 374.576 636.279 376.677 635.23 378.777C634.179 380.878 632.605 391.385 630.505 393.486C628.405 395.587 629.454 396.638 626.828 398.739C624.203 400.84 617.903 409.77 620.003 411.87C622.103 413.971 616.328 417.124 616.328 417.124C616.328 417.124 610.552 420.276 614.754 427.628C618.956 434.98 613.18 439.71 615.805 441.811C618.431 443.912 618.431 447.064 618.431 447.064L622.63 454.418C622.63 454.418 617.294 457.631 618.431 459.146C618.431 459.146 609.505 477.53 611.605 483.835C613.705 490.138 616.331 490.664 616.331 490.664L645.209 485.41L648.36 494.34C648.36 494.34 647.309 501.168 650.46 502.743L655.711 505.37" stroke="white" stroke-width="0.7688" stroke-miterlimit="10"/>
<path d="M154.293 362.497C148.519 357.244 78.6867 248.513 75.0124 246.409C71.3381 244.309 92.8629 173.921 92.8629 173.921" stroke="white" stroke-width="0.7688" stroke-miterlimit="10"/>
<path d="M195.248 200.186C195.248 200.186 171.095 336.234 168.469 340.436C165.844 344.637 164.27 340.961 164.27 340.961L157.444 335.708C154.819 338.861 155.07 344.208 155.439 346.798C155.808 349.39 156.919 355.312 156.919 356.793C156.919 358.273 150.999 365.307 152.479 366.416C153.959 367.528 155.068 371.229 155.808 372.71C156.548 374.19 158.396 377.892 159.507 380.112C160.618 382.333 159.507 385.666 156.548 384.925C153.588 384.185 150.997 386.406 150.997 386.406C150.997 386.406 146.928 396.029 148.408 398.25C149.888 400.471 146.189 400.471 146.189 403.063C146.189 405.655 142.858 408.616 145.08 409.725C147.3 410.835 152.479 411.206 149.519 413.055C146.56 414.907 144.34 416.017 142.12 416.017C139.9 416.017 137.786 413.574 137.786 413.574" stroke="white" stroke-width="0.7688" stroke-miterlimit="10"/>
<path d="M279.749 236.496C279.749 236.496 248.301 463.025 251.261 472.648" stroke="white" stroke-width="0.7688" stroke-miterlimit="10"/>
<path d="M382.605 343.096C383.716 343.096 381.496 358.273 381.496 358.273C379.276 360.125 375.576 453.029 374.837 463.393C374.837 463.393 304.541 458.952 301.952 458.952C299.364 458.952 298.372 461.664 298.372 461.664" stroke="white" stroke-width="0.7688" stroke-miterlimit="10"/>
<path d="M401.102 345.317C401.102 345.317 520.837 351.431 544.4 347.264" stroke="white" stroke-width="0.7688" stroke-miterlimit="10"/>
<path d="M381.494 358.273C381.494 358.273 433.661 359.754 437.36 360.125L439.211 406.393L444.02 410.465L451.79 408.985L455.121 413.426L464 417.499H469.919L475.099 416.388L481.018 420.46V423.052L489.898 421.572L494.708 423.423L498.408 423.052L503.588 422.312L508.398 423.423L512.467 426.016L518.757 423.795H528.008L533.187 420.834L536.887 422.314C536.887 422.314 545.15 428.711 548.603 429.214" stroke="white" stroke-width="0.7688" stroke-miterlimit="10"/>
<path d="M404.432 274.62C404.432 274.62 480.147 280.111 528.123 274.775" stroke="white" stroke-width="0.7688" stroke-miterlimit="10"/>
<path d="M518.013 261.297C518.013 261.297 524.304 262.037 534.292 262.037C544.28 262.037 582.019 256.855 585.718 256.855C589.418 256.855 593.118 257.967 593.118 257.967L599.002 257.969" stroke="white" stroke-width="0.7688" stroke-miterlimit="10"/>
<path d="M507.645 190.731C507.645 190.731 526.892 189.119 533.923 190.969C540.953 192.819 570.18 190.229 575.73 189.857C581.281 189.488 597.954 187.579 597.954 187.579" stroke="white" stroke-width="0.7688" stroke-miterlimit="10"/>
<path d="M576.841 112.498C576.841 112.498 587.571 109.908 589.791 109.908C592.011 109.908 591.271 106.207 594.23 106.576C597.19 106.947 599.041 109.537 599.781 111.758C600.521 113.978 609.771 113.978 609.771 113.978C609.771 113.978 615.691 114.347 626.421 119.16C637.151 123.973 643.439 124.713 643.439 124.713L644.179 128.415L650.47 132.487L654.541 141.001L657.894 147.097L658.194 159.681L657.894 185.447L655.799 201.028C655.799 201.028 657.249 205.684 657.871 207.999C657.871 207.999 657.503 209.849 658.243 213.181C658.982 216.513 660.462 215.402 666.013 217.622C671.564 219.843 671.564 222.435 671.564 222.435C671.564 222.435 669.344 232.799 668.235 238.721C667.124 244.643 672.675 280.178 673.046 284.249C673.415 288.321 674.157 296.093 674.157 296.093C674.157 296.093 670.086 306.457 668.237 310.529C666.389 314.602 668.237 317.192 669.348 318.672C670.459 320.153 668.98 324.966 668.98 324.966C668.98 324.966 664.169 326.077 660.1 326.817C656.03 327.558 660.84 331.259 661.211 333.48C661.58 335.701 660.472 336.812 660.472 336.812L657.143 334.22C657.143 334.22 652.332 334.589 649.744 334.96C647.153 335.329 648.377 343.592 648.377 343.592" stroke="white" stroke-width="0.7688" stroke-miterlimit="10"/>
<path d="M610.139 210.587C610.139 210.587 620.129 210.956 623.458 210.956C626.786 210.956 640.108 209.106 640.108 209.106L650.098 207.255L656.992 206.715" stroke="white" stroke-width="0.7688" stroke-miterlimit="10"/>
<path d="M542.802 359.754C542.802 359.754 561.301 355.313 567.22 357.162C573.139 359.014 589.418 357.531 589.418 357.531L606.436 355.682C606.436 355.682 629.374 352.721 630.854 354.201C632.334 355.682 630.483 362.344 628.634 364.565C626.786 366.786 630.114 367.157 633.445 366.786C636.776 366.414 638.996 362.713 640.844 363.453" stroke="white" stroke-width="0.7688" stroke-miterlimit="10"/>
<path d="M741.145 208.213C741.145 208.213 730.013 215.768 726.314 216.508C722.614 217.249 714.475 218.36 714.475 218.36L708.184 215.399L694.125 219.1L680.067 222.802L671.556 222.433" stroke="white" stroke-width="0.7688" stroke-miterlimit="10"/>
<path d="M645.734 352.517C645.734 352.517 670.075 352.723 670.075 350.871C670.075 349.019 670.075 346.798 670.075 346.798L685.245 345.318C685.245 345.318 716.693 339.396 731.492 338.284C746.29 337.172 758.129 333.842 772.188 331.25C786.247 328.658 812.144 327.918 821.026 325.328C829.905 322.736 853.583 318.666 862.464 314.224C871.343 309.783 881.599 303.189 881.599 303.189" stroke="white" stroke-width="0.7688" stroke-miterlimit="10"/>
<path d="M557.601 443.406C557.601 443.406 576.47 442.294 582.389 442.665C588.309 443.034 615.686 440.073 615.686 440.073" stroke="white" stroke-width="0.7688" stroke-miterlimit="10"/>
<path d="M631.597 391.216C631.597 391.216 640.476 390.107 644.547 388.995C648.617 387.886 632.708 389.735 686.354 384.923C740 380.11 764.418 373.447 764.418 373.447L770.706 372.336C770.706 372.336 779.585 366.042 784.025 365.302C788.464 364.562 803.263 361.97 803.263 361.97C803.263 361.97 804.743 360.858 808.814 361.601C812.884 362.341 816.213 363.081 816.213 363.081L816.582 367.894L822.872 368.634L841.002 363.453L856.911 374.188L870.373 377.787" stroke="white" stroke-width="0.7688" stroke-miterlimit="10"/>
<path d="M693.526 499.733L696.343 494.856V488.934C696.343 488.934 697.823 484.864 694.863 484.121C691.903 483.381 692.272 479.679 692.272 479.679L698.931 478.568L707.442 478.199L721.5 477.087L737.41 474.495C737.41 474.495 744.441 473.015 747.769 473.755C751.098 474.495 751.838 477.828 751.838 477.828L757.388 478.568C757.388 478.568 762.568 476.718 772.187 476.718C781.806 476.718 789.945 475.607 795.496 475.607C801.047 475.607 801.415 474.498 803.266 475.238C805.115 475.978 808.077 480.42 809.186 480.42" stroke="white" stroke-width="0.7688" stroke-miterlimit="10"/>
<path d="M668.225 386.404C668.225 386.404 674.145 394.178 674.516 395.658C674.887 397.139 674.516 416.757 674.516 416.757C674.516 416.757 670.816 445.258 671.556 446.367C672.296 447.479 670.447 458.952 671.927 460.804C673.407 462.653 674.518 468.947 674.518 468.947C674.518 468.947 678.589 494.116 678.958 497.077C679.329 500.038 682.15 503.029 682.15 503.029" stroke="white" stroke-width="0.7688" stroke-miterlimit="10"/>
<path d="M723.351 381.593V386.406C723.351 386.406 722.982 384.554 728.53 400.102C734.081 415.648 740 439.336 741.849 440.819C743.697 442.3 744.069 446.001 742.96 447.853C741.851 449.705 741.48 450.814 741.111 452.666C740.74 454.515 740.74 457.476 740.74 457.476L745.551 463.77L742.591 469.323V471.915" stroke="white" stroke-width="0.7688" stroke-miterlimit="10"/>
<path d="M769.228 371.97L766.269 379.004L771.448 381.596C775.519 383.447 775.519 383.447 775.519 383.447L783.289 389.001L789.58 396.775C789.58 396.775 789.949 402.328 796.239 405.658C802.53 408.99 808.818 412.691 808.818 412.691C808.818 412.691 809.929 413.801 810.667 416.021C811.407 418.242 813.258 421.944 813.258 421.944C813.258 421.944 816.217 425.276 817.697 427.497C819.177 429.718 823.799 431.431 823.799 431.431" stroke="white" stroke-width="0.7688" stroke-miterlimit="10"/>
<path d="M745.552 377.151C745.552 377.151 745.181 373.819 745.552 371.229C745.92 368.637 748.511 368.268 750.362 368.268C752.213 368.268 750.733 364.195 752.953 363.086C755.173 361.974 759.244 359.385 761.093 359.385C762.944 359.385 764.052 355.683 764.052 355.683L771.823 350.13L774.042 346.798C779.222 345.688 782.922 344.577 782.922 344.577C782.922 344.577 799.94 334.582 804.38 327.92" stroke="white" stroke-width="0.7688" stroke-miterlimit="10"/>
<path d="M714.791 218.699C714.791 218.699 721.503 275.729 723.352 280.542" stroke="white" stroke-width="0.7688" stroke-miterlimit="10"/>
<path d="M801.417 180.234L802.156 193.189C802.156 193.189 869.493 175.792 875.412 175.052C881.331 174.311 881.331 176.901 881.331 176.901L883.922 179.862C883.922 179.862 883.554 181.343 885.771 182.454C887.991 183.564 893.17 186.525 893.17 186.525L903.529 188.377C903.529 188.377 908.709 194.299 911.3 192.818C913.891 191.338 910.56 190.226 910.56 188.377C910.56 186.525 911.671 183.935 911.671 183.935C911.671 183.935 910.56 165.428 909.08 163.207C907.6 160.987 905.749 151.363 905.749 151.363L903.901 140.628L899.83 127.303C899.83 127.303 897.979 118.42 894.65 115.088C891.322 111.756 889.471 105.833 889.471 105.833" stroke="white" stroke-width="0.7688" stroke-miterlimit="10"/>
<path d="M668.225 314.596C668.225 314.596 678.955 317.188 680.435 317.188C681.915 317.188 685.615 316.076 685.615 316.076L687.464 312.746C687.464 312.746 687.464 311.266 696.343 307.193C705.222 303.121 715.581 296.458 715.581 296.458L719.652 291.648C720.392 289.055 724.462 289.055 723.722 287.575C722.983 286.094 718.912 281.281 721.503 280.912C724.094 280.544 727.422 279.063 727.793 280.172C728.164 281.281 731.124 280.913 734.084 282.762C737.044 284.614 738.523 287.575 738.523 287.575H748.143C752.213 286.466 755.913 286.466 755.913 286.466C755.913 286.466 754.433 283.505 756.653 283.505C758.873 283.505 760.724 280.172 762.203 282.024C763.683 283.876 762.943 286.466 762.943 286.466L766.274 290.167C766.274 290.167 766.274 298.31 768.865 299.79C771.456 301.271 778.484 306.453 780.335 307.933C782.186 309.414 784.775 313.855 787.366 313.855C789.957 313.855 794.025 313.487 794.025 313.487L795.136 311.266C798.467 312.006 802.907 309.416 802.907 309.416L810.677 305.344L814.377 303.123V294.609C814.377 294.609 812.528 290.536 814.377 289.796C816.228 289.055 821.114 278.023 820.815 275.924C820.515 273.828 821.714 270.233 822.91 269.034C824.109 267.834 820.515 269.333 826.204 266.638C831.893 263.942 831.596 265.738 833.092 264.242C834.588 262.745 837.884 257.651 838.483 255.252C839.083 252.856 840.579 252.556 839.382 250.458C838.184 248.362 836.388 246.863 840.281 249.259C844.174 251.655 845.673 252.554 847.768 253.154C849.863 253.753 852.261 254.653 852.261 253.154C852.261 251.655 850.463 248.059 852.261 248.059C854.059 248.059 858.549 252.254 861.843 253.453C865.137 254.653 864.275 258.474 868.131 259.145" stroke="white" stroke-width="0.7688" stroke-miterlimit="10"/>
<path d="M781.303 192.791C781.303 192.791 786.362 199.824 787.261 200.424C788.16 201.023 789.356 205.818 789.356 205.818C789.356 205.818 788.757 215.105 791.152 218.103C793.547 221.098 794.146 227.092 794.146 227.092C794.146 227.092 792.051 243.571 792.648 245.068C793.247 246.567 791.449 249.263 792.648 251.659C793.847 254.055 790.553 255.854 789.354 257.65C788.156 259.449 787.856 261.845 785.761 261.845C785.761 261.845 778.873 264.841 778.573 267.239C778.274 269.635 777.974 271.434 777.974 273.83C777.974 276.226 777.375 276.526 777.375 276.526L774.38 274.727L773.481 277.123L773.182 280.419C773.182 280.419 776.775 277.423 773.182 282.515C769.588 287.609 768.989 289.406 768.989 289.406L766.264 290.164" stroke="white" stroke-width="0.7688" stroke-miterlimit="10"/>
<path d="M822.301 267.836C822.301 267.836 820.503 264.541 820.503 262.145C820.503 259.749 818.108 253.755 818.108 253.755L816.609 248.361C816.609 248.361 813.915 249.56 812.117 250.457C810.319 251.357 809.122 253.453 807.025 253.153C804.929 252.853 801.036 251.654 801.036 251.654L799.238 249.556C799.238 249.556 795.645 248.656 796.544 246.56C797.443 244.464 794.448 242.965 794.448 242.965C791.754 243.564 792.65 243.864 792.65 243.864" stroke="white" stroke-width="0.7688" stroke-miterlimit="10"/>
<path d="M887.285 251.357C887.285 251.357 884.291 244.166 884.591 241.47C884.89 238.774 883.392 235.479 883.392 235.479L880.098 230.984L873.21 230.385L860.632 233.68L848.352 235.779L839.967 242.969C839.967 242.969 836.373 246.265 837.871 248.663" stroke="white" stroke-width="0.7688" stroke-miterlimit="10"/>
<path d="M889.981 183.647C889.981 183.647 883.093 188.741 884.292 190.837C885.49 192.934 886.687 195.332 886.687 195.332L886.387 198.627L887.586 201.623L887.885 205.218L888.784 209.413L894.476 212.109L887.888 232.484L892.38 237.578L885.193 236.079" stroke="white" stroke-width="0.7688" stroke-miterlimit="10"/>
</g>
<defs>
<clipPath id="clip0">
<rect width="1000" height="618" fill="white"/>
</clipPath>
</defs>
</svg>
