<svg width="96" height="96" viewBox="0 0 96 96" fill="none" xmlns="http://www.w3.org/2000/svg">
<circle cx="47.9551" cy="47.9551" r="32.4552" stroke="#129998"/>
<circle opacity="0.3" cx="48" cy="48" r="40.3358" stroke="#129998"/>
<circle opacity="0.1" cx="48" cy="48" r="47.5" stroke="#129998"/>
<path d="M42.695 56.0472L42.8085 56.0933C43.3405 56.3095 43.0197 57.1234 42.4791 56.904L42.3656 56.8578C42.1417 56.7668 42.034 56.5117 42.1249 56.2878C42.216 56.0639 42.4713 55.9565 42.695 56.0472Z" fill="#129998"/>
<path d="M44.3286 56.7105L45.3421 57.1221C45.873 57.3376 45.5543 58.1525 45.0129 57.9328L43.9994 57.5212C43.7755 57.4303 43.6678 57.1751 43.7587 56.9512C43.8496 56.7273 44.1048 56.6198 44.3286 56.7105Z" fill="#129998"/>
<path d="M35.9586 49.4365H37.9757C38.5328 49.4365 38.9861 49.8897 38.9861 50.4468V50.8849C41.0043 50.2768 43.1952 50.4459 45.088 51.377L49.8732 53.7182L58.0144 49.3014C58.9884 48.7436 60.2361 49.0811 60.796 50.0542C61.3068 50.9427 61.0389 52.0136 60.1137 52.7853C59.7931 53.0799 51.8639 60.3465 51.8235 60.3769C50.9116 61.0726 49.6658 61.2418 48.5737 60.829L41.9109 58.3136C40.9523 57.9921 39.9242 58.0259 38.9862 58.4034V58.7475C38.9862 59.3046 38.5328 59.7578 37.9758 59.7578H35.9587C35.4015 59.7578 34.9484 59.3045 34.9484 58.7475V50.4468C34.9483 49.8897 35.4014 49.4365 35.9586 49.4365ZM38.9862 57.4727C40.0296 57.1317 41.148 57.1326 42.1979 57.4868C42.2028 57.4886 42.2076 57.4902 42.2125 57.4921L48.8829 60.0103C49.6923 60.3159 50.6077 60.1946 51.2786 59.6918C51.6492 59.3537 59.4605 52.197 59.5279 52.135C59.534 52.1294 59.5401 52.1239 59.5465 52.1188C60.0139 51.7317 60.3883 51.1005 60.0375 50.4903C59.7179 49.9347 59.0054 49.742 58.4404 50.0654L50.8378 54.19L50.8718 54.2066C51.3308 54.4379 51.6719 54.8348 51.8324 55.3241C52.3603 56.9353 50.6713 58.4117 49.1454 57.6421L42.9019 54.588C42.6849 54.4818 42.595 54.2199 42.7012 54.0028C42.8073 53.7858 43.0694 53.6959 43.2865 53.8021L49.5346 56.8584C50.3732 57.281 51.2876 56.4711 51.0009 55.5965C50.9135 55.3298 50.7279 55.1138 50.4826 54.9902L44.7027 52.1624C42.9286 51.2897 40.8621 51.1642 38.9861 51.8026V57.4727H38.9862ZM35.8233 58.7475C35.8233 58.8222 35.884 58.8828 35.9586 58.8828H37.9757C38.0504 58.8828 38.1111 58.8221 38.1111 58.7475V50.4468C38.1111 50.3721 38.0503 50.3115 37.9757 50.3115H35.9586C35.8839 50.3115 35.8233 50.3722 35.8233 50.4468V58.7475Z" fill="black"/>
<path d="M49.5838 47.9761C46.6355 47.9761 44.2368 45.5775 44.2368 42.6292C44.2368 39.6809 46.6355 37.2822 49.5838 37.2822C52.532 37.2822 54.9306 39.6809 54.9306 42.6292C54.9306 45.5775 52.532 47.9761 49.5838 47.9761ZM49.5838 38.1572C47.118 38.1572 45.1118 40.1633 45.1118 42.6292C45.1118 45.0951 47.118 47.1011 49.5838 47.1011C52.0496 47.1011 54.0556 45.0951 54.0556 42.6292C54.0556 40.1633 52.0496 38.1572 49.5838 38.1572Z" fill="#129998"/>
<path d="M47.0625 44.8937C46.9508 45.5449 47.6346 46.0416 48.2194 45.7344L49.5849 45.0165L50.9503 45.7342C51.5348 46.0419 52.219 45.5449 52.1073 44.8937L51.8465 43.3733L52.9512 42.2965C53.1702 42.0832 53.2475 41.7699 53.153 41.479C52.9318 40.7982 52.1551 40.9373 51.7585 40.8272L51.9911 40.5155C52.1356 40.3218 52.0958 40.0477 51.9022 39.9031C51.7085 39.7589 51.4346 39.7986 51.2898 39.9921L50.8904 40.5273L50.3 39.3312C50.0076 38.7386 49.1623 38.7387 48.8699 39.3311L48.1872 40.7144L46.6607 40.9362C46.0068 41.031 45.7456 41.8355 46.2187 42.2964L47.3233 43.3732L47.0625 44.8937ZM46.9421 41.7797L48.3535 41.5745C48.6131 41.5367 48.8375 41.3737 48.9537 41.1384L49.5849 39.8595C50.2426 41.1751 50.2105 41.1651 50.3179 41.2945L49.3302 42.6182L49.1351 42.3633C48.9882 42.1717 48.7137 42.1352 48.5218 42.2818C48.3299 42.4287 48.2934 42.7034 48.4403 42.8952L48.9872 43.6096C49.0701 43.7178 49.1985 43.7811 49.3346 43.7811H49.3373C49.4744 43.7803 49.6033 43.7152 49.6853 43.6054L51.1633 41.625L52.228 41.7798L51.2067 42.7753C51.0188 42.9585 50.933 43.2222 50.9773 43.481L51.2184 44.8868L49.956 44.2231C49.7236 44.1009 49.4462 44.1012 49.214 44.2231L47.9516 44.8868L48.1927 43.4809C48.237 43.2222 48.1512 42.9585 47.9633 42.7753L46.9421 41.7797Z" fill="#129998"/>
<path d="M49.5836 50.3093C45.3488 50.3093 41.9035 46.864 41.9035 42.6292C41.9035 38.3944 45.3488 34.9491 49.5836 34.9491C53.8184 34.9491 57.2637 38.3944 57.2637 42.6292C57.2637 46.864 53.8184 50.3093 49.5836 50.3093ZM49.5836 35.8241C45.8313 35.8241 42.7785 38.8769 42.7785 42.6292C42.7785 46.3815 45.8313 49.4343 49.5836 49.4343C53.3359 49.4343 56.3887 46.3815 56.3887 42.6292C56.3887 38.8769 53.3359 35.8241 49.5836 35.8241Z" fill="black"/>
</svg>
