<svg width="96" height="96" viewBox="0 0 96 96" fill="none" xmlns="http://www.w3.org/2000/svg">
<circle cx="48" cy="48" r="32.4552" stroke="#129998"/>
<circle opacity="0.3" cx="48" cy="48" r="40.3358" stroke="#129998"/>
<circle opacity="0.1" cx="48" cy="48" r="47.5" stroke="#129998"/>
<path d="M61.7633 50.4238L60.1834 37.8592C60.1058 37.2486 59.7803 36.6926 59.2781 36.3132C58.776 35.9338 58.1383 35.762 57.5049 35.8355L37.5264 38.1716C36.9227 38.2432 36.3694 38.5322 35.9774 38.9808C35.5855 39.4293 35.384 40.0042 35.4133 40.5901C35.0501 40.7943 34.7487 41.0867 34.5391 41.4382C34.3295 41.7897 34.219 42.1881 34.2187 42.5935V55.2498C34.2194 55.865 34.4731 56.4547 34.9242 56.8897C35.3754 57.3247 35.987 57.5694 36.6249 57.5701H44.8847C44.8966 57.6607 44.9287 57.7477 44.9788 57.8251C45.0289 57.9026 45.0958 57.9687 45.1749 58.0189L46.5179 58.8707L47.0849 60.3209C47.134 60.4458 47.2228 60.5525 47.3385 60.626C47.4543 60.6994 47.5911 60.7357 47.7295 60.7297L49.3349 60.6578L50.6774 61.5093C50.7932 61.5828 50.9301 61.619 51.0685 61.6128C51.2069 61.6066 51.3398 61.5583 51.448 61.4749L52.7031 60.5069L54.3085 60.435C54.4469 60.4288 54.5798 60.3805 54.688 60.297C54.7962 60.2135 54.8742 60.0992 54.9109 59.9703L55.3361 58.4756L56.51 57.5701H56.7499C57.3879 57.5694 57.9995 57.3247 58.4506 56.8897C58.9017 56.4547 59.1555 55.865 59.1562 55.2498V53.0661L59.6648 53.0066C60.2982 52.9324 60.8752 52.6186 61.2688 52.1343C61.6623 51.6499 61.8403 51.0347 61.7635 50.4238H61.7633ZM35.5312 44.9138H57.8437V47.0232H35.5312V44.9138ZM57.8437 43.6482H35.5312V42.5935C35.5315 42.3139 35.6469 42.0458 35.8519 41.8481C36.057 41.6504 36.335 41.5392 36.6249 41.5388H56.7499C57.0399 41.5392 57.3179 41.6504 57.523 41.8481C57.728 42.0458 57.8434 42.3139 57.8437 42.5935V43.6482ZM54.3497 57.6159C54.2415 57.6993 54.1635 57.8137 54.1268 57.9425L53.7713 59.192L52.4291 59.2522C52.2907 59.2584 52.1579 59.3067 52.0497 59.3902L51.0004 60.1995L49.8779 59.4876C49.7708 59.4197 49.6454 59.3835 49.5172 59.3835C49.5071 59.3835 49.497 59.3835 49.4868 59.3841L48.1446 59.4443L47.6706 58.2319C47.6216 58.1069 47.5329 58 47.4171 57.9265L46.2946 57.2146L46.6501 55.9651C46.6867 55.8362 46.6802 55.6995 46.6313 55.5745L46.157 54.3618L47.2062 53.5524C47.3145 53.4689 47.3925 53.3544 47.4291 53.2255L47.7846 51.976L49.1268 51.9159C49.2652 51.9097 49.3981 51.8614 49.5063 51.7779L50.5555 50.9685L51.678 51.6804C51.7938 51.7539 51.9307 51.7901 52.0691 51.7839L53.4113 51.7237L53.8854 52.9361C53.9343 53.0611 54.023 53.168 54.1388 53.2415L55.2613 53.9534L54.9058 55.2029C54.8691 55.3318 54.8757 55.4685 54.9246 55.5935L55.3987 56.8059L54.3497 57.6159ZM56.7499 56.3045H56.6053L56.228 55.3399L56.6532 53.8454C56.6899 53.7165 56.6833 53.5797 56.6344 53.4547C56.5855 53.3296 56.4968 53.2227 56.381 53.1493L55.0383 52.2975L54.4713 50.8473C54.4222 50.7223 54.3335 50.6155 54.2177 50.5421C54.102 50.4687 53.9651 50.4324 53.8267 50.4384L52.2213 50.5103L50.8786 49.6586C50.7628 49.5851 50.6259 49.5489 50.4874 49.5551C50.349 49.5613 50.2161 49.6096 50.1079 49.693L48.8531 50.6613L47.2475 50.7332C47.1091 50.7394 46.9763 50.7878 46.8681 50.8712C46.7598 50.9547 46.6818 51.0691 46.6452 51.198L46.22 52.6925L44.9648 53.6607C44.8566 53.7441 44.7786 53.8585 44.7419 53.9873C44.7052 54.1161 44.7118 54.2528 44.7606 54.3779L45.3277 55.8281L45.1924 56.3045H36.6249C36.335 56.3041 36.057 56.1929 35.8519 55.9952C35.6469 55.7975 35.5315 55.5294 35.5312 55.2498V48.2888H57.8437V55.2498C57.8434 55.5294 57.728 55.7975 57.523 55.9952C57.3179 56.1929 57.0399 56.3041 56.7499 56.3045ZM60.2355 51.3536C59.9908 51.6861 59.5513 51.7649 59.1562 51.7913V42.5935C59.1555 41.9783 58.9017 41.3886 58.4506 40.9536C57.9995 40.5186 57.3879 40.2739 56.7499 40.2732H36.7431C36.7876 40.0546 36.9026 39.8552 37.0717 39.7034C37.2407 39.5516 37.4552 39.4552 37.6845 39.428L57.6632 37.0919C57.9511 37.0585 58.2409 37.1366 58.4691 37.309C58.6974 37.4815 58.8454 37.7341 58.8807 38.0116L60.4605 50.5763C60.4782 50.7138 60.4674 50.8533 60.4288 50.9867C60.3902 51.1201 60.3245 51.2448 60.2355 51.3536Z" fill="black"/>
<path d="M38.3748 50.3986H36.6248C36.4508 50.3986 36.2838 50.4652 36.1608 50.5839C36.0377 50.7026 35.9686 50.8636 35.9686 51.0314C35.9686 51.1992 36.0377 51.3602 36.1608 51.4789C36.2838 51.5975 36.4508 51.6642 36.6248 51.6642H38.3748C38.5489 51.6642 38.7158 51.5975 38.8389 51.4789C38.9619 51.3602 39.0311 51.1992 39.0311 51.0314C39.0311 50.8636 38.9619 50.7026 38.8389 50.5839C38.7158 50.4652 38.5489 50.3986 38.3748 50.3986Z" fill="#129998"/>
<path d="M44.4999 50.3986H40.9999C40.8259 50.3986 40.659 50.4652 40.5359 50.5839C40.4128 50.7026 40.3437 50.8636 40.3437 51.0314C40.3437 51.1992 40.4128 51.3602 40.5359 51.4789C40.659 51.5975 40.8259 51.6642 40.9999 51.6642H44.4999C44.674 51.6642 44.8409 51.5975 44.964 51.4789C45.087 51.3602 45.1562 51.1992 45.1562 51.0314C45.1562 50.8636 45.087 50.7026 44.964 50.5839C44.8409 50.4652 44.674 50.3986 44.4999 50.3986Z" fill="#129998"/>
<path d="M52.0638 53.4491L48.5638 56.8241C47.9529 57.3965 48.8988 58.3081 49.4919 57.7191L52.9919 54.3441C53.115 54.2254 53.1842 54.0644 53.1842 53.8966C53.1842 53.7288 53.115 53.5678 52.9919 53.4491C52.8689 53.3304 52.7019 53.2638 52.5279 53.2638C52.3538 53.2638 52.1869 53.3304 52.0638 53.4491Z" fill="#129998"/>
<path d="M52.309 57.6935C52.6715 57.6935 52.9653 57.4102 52.9653 57.0607C52.9653 56.7112 52.6715 56.4279 52.309 56.4279C51.9466 56.4279 51.6528 56.7112 51.6528 57.0607C51.6528 57.4102 51.9466 57.6935 52.309 57.6935Z" fill="#129998"/>
<path d="M49.2466 54.7404C49.6091 54.7404 49.9029 54.4571 49.9029 54.1076C49.9029 53.7581 49.6091 53.4748 49.2466 53.4748C48.8842 53.4748 48.5904 53.7581 48.5904 54.1076C48.5904 54.4571 48.8842 54.7404 49.2466 54.7404Z" fill="#129998"/>
</svg>
