<svg width="96" height="96" viewBox="0 0 96 96" fill="none" xmlns="http://www.w3.org/2000/svg">
<circle cx="47.9551" cy="47.9551" r="32.4552" stroke="#129998"/>
<circle opacity="0.3" cx="48" cy="48" r="40.3358" stroke="#129998"/>
<circle opacity="0.1" cx="48" cy="48" r="47.5" stroke="#129998"/>
<path d="M61.3008 37.7382H35.6992C34.7623 37.7382 34 38.5007 34 39.438L34.0001 57.977C33.9997 58.4831 34.2772 58.9284 34.7243 59.1391C34.8996 59.2217 35.0864 59.2621 35.2732 59.2621C35.5811 59.2621 35.8892 59.1522 36.1462 58.9396L38.4862 57.0044H45.951C46.2637 57.0044 46.5174 56.7508 46.5174 56.438C46.5174 56.1252 46.2637 55.8716 45.951 55.8716H38.2824C38.1506 55.8716 38.0229 55.9175 37.9214 56.0015L35.4243 58.0667C35.32 58.1529 35.2376 58.1287 35.2071 58.1143C35.1571 58.0908 35.1328 58.0461 35.1328 57.9776V39.438C35.1328 39.1254 35.3869 38.871 35.6992 38.871H61.3008C61.6131 38.871 61.8672 39.1254 61.8672 39.438V55.3047C61.8672 55.6173 61.6131 55.8716 61.3008 55.8716H51.0486C50.7359 55.8716 50.4822 56.1252 50.4822 56.438C50.4822 56.7508 50.7359 57.0044 51.0486 57.0044H61.3008C62.2377 57.0044 63 56.2419 63 55.3047V39.438C63 38.5007 62.2377 37.7382 61.3008 37.7382Z" fill="black"/>
<path d="M45.9248 42.2738H42.4945C41.5517 42.2738 40.7847 43.0408 40.7847 43.9836V47.4138C40.7847 48.3566 41.5517 49.1236 42.4945 49.1236H43.9178C44.0286 49.3962 43.948 49.8117 43.6859 50.2657C43.3359 50.8718 43.415 51.5933 43.8826 52.0609C44.1525 52.3308 44.5037 52.4684 44.8762 52.4684C45.1613 52.4684 45.4588 52.3878 45.7419 52.2244C47.6347 51.1315 47.6346 48.8191 47.6346 47.4374V43.9836C47.6346 43.0408 46.8675 42.2738 45.9248 42.2738ZM46.5017 47.4375C46.5018 48.7205 46.5019 50.4775 45.1755 51.2433C44.9708 51.3615 44.7915 51.3677 44.6836 51.2599C44.6028 51.1791 44.556 51.0243 44.6669 50.8321C45.2671 49.7925 45.2459 48.7924 44.6102 48.1567C44.5039 48.0504 44.3599 47.9907 44.2097 47.9907H42.4945C42.1764 47.9907 41.9175 47.7319 41.9175 47.4138V43.9835C41.9175 43.6654 42.1763 43.4065 42.4945 43.4065H45.9248C46.243 43.4065 46.5018 43.6654 46.5018 43.9835V47.4375H46.5017Z" fill="#129998"/>
<path d="M52.4988 49.1238C52.6096 49.3964 52.529 49.8119 52.2669 50.2659C51.9169 50.872 51.996 51.5935 52.4636 52.0611C52.7335 52.331 53.0847 52.4685 53.4572 52.4685C53.7422 52.4685 54.0397 52.3879 54.3228 52.2245C56.2157 51.1317 56.2156 48.8192 56.2155 47.4376V43.9837C56.2155 43.0409 55.4485 42.2739 54.5057 42.2739H51.0754C50.1327 42.2739 49.3656 43.0409 49.3656 43.9837V47.4139C49.3656 48.3567 50.1327 49.1238 51.0754 49.1238H52.4988V49.1238ZM50.4985 47.414V43.9838C50.4985 43.6656 50.7573 43.4068 51.0755 43.4068H54.5058C54.8239 43.4068 55.0828 43.6656 55.0828 43.9838V47.4377C55.0828 48.7206 55.0829 50.4777 53.7565 51.2435C53.5516 51.3617 53.3724 51.3678 53.2647 51.2601C53.1838 51.1792 53.1371 51.0244 53.248 50.8323C53.8482 49.7927 53.8269 48.7925 53.1911 48.1568C53.0849 48.0506 52.9408 47.9909 52.7906 47.9909H51.0756C50.7573 47.991 50.4985 47.7321 50.4985 47.414Z" fill="#129998"/>
<path d="M48.5006 55.8716H48.5002C48.1874 55.8716 47.934 56.1251 47.934 56.438C47.934 56.7508 48.1878 57.0044 48.5006 57.0044C48.8134 57.0044 49.067 56.7508 49.067 56.438C49.067 56.1251 48.8134 55.8716 48.5006 55.8716Z" fill="black"/>
</svg>
