<svg width="72" height="72" viewBox="0 0 72 72" fill="none" xmlns="http://www.w3.org/2000/svg">
<g clip-path="url(#clip0)">
<path d="M38 5.75C19.6383 5.75 4.75 20.6383 4.75 39C4.75 57.3617 19.6383 72.25 38 72.25C56.3617 72.25 71.25 57.3617 71.25 39C71.25 20.6383 56.3617 5.75 38 5.75ZM38 66.6094C22.7555 66.6094 10.3906 54.2445 10.3906 39C10.3906 23.7555 22.7555 11.3906 38 11.3906C53.2445 11.3906 65.6094 23.7555 65.6094 39C65.6094 54.2445 53.2445 66.6094 38 66.6094ZM41.5402 37.2781L39.6551 36.8402V26.8727C42.4754 27.2586 44.2195 29.025 44.5164 31.1922C44.5535 31.4891 44.8059 31.7043 45.1027 31.7043H48.4352C48.784 31.7043 49.0586 31.4 49.0289 31.0512C48.5762 26.4273 44.7687 23.4586 39.6848 22.9465V20.5195C39.6848 20.193 39.4176 19.9258 39.091 19.9258H37.0055C36.6789 19.9258 36.4117 20.193 36.4117 20.5195V22.9688C31.157 23.4809 27.0453 26.3828 27.0453 31.8008C27.0453 36.818 30.7414 39.2375 34.623 40.1652L36.4563 40.6328V51.2238C33.1758 50.7859 31.3352 49.0344 30.9566 46.6742C30.9121 46.3922 30.6598 46.1844 30.3703 46.1844H26.9414C26.5926 46.1844 26.318 46.4813 26.3477 46.8301C26.6816 50.9121 29.7766 54.6676 36.382 55.15V57.4805C36.382 57.807 36.6492 58.0742 36.9758 58.0742H39.0836C39.4102 58.0742 39.6773 57.807 39.6773 57.473L39.6625 55.1203C45.4738 54.6082 49.6301 51.4984 49.6301 45.9172C49.6227 40.7664 46.3496 38.4656 41.5402 37.2781ZM36.4488 36.0758C36.0332 35.957 35.6844 35.8457 35.3355 35.7047C32.827 34.7992 31.6617 33.3371 31.6617 31.452C31.6617 28.7578 33.7027 27.2215 36.4488 26.8727V36.0758ZM39.6551 51.2461V41.323C39.8852 41.3898 40.093 41.4418 40.3082 41.4863C43.8187 42.5551 44.9988 44.0395 44.9988 46.318C44.9988 49.2199 42.8168 50.9641 39.6551 51.2461Z" fill="black"/>
<path d="M38 5.75C19.6383 5.75 4.75 20.6383 4.75 39C4.75 57.3617 19.6383 72.25 38 72.25C56.3617 72.25 71.25 57.3617 71.25 39C71.25 20.6383 56.3617 5.75 38 5.75ZM38 66.6094C22.7555 66.6094 10.3906 54.2445 10.3906 39C10.3906 23.7555 22.7555 11.3906 38 11.3906C53.2445 11.3906 65.6094 23.7555 65.6094 39C65.6094 54.2445 53.2445 66.6094 38 66.6094ZM41.5402 37.2781L39.6551 36.8402V26.8727C42.4754 27.2586 44.2195 29.025 44.5164 31.1922C44.5535 31.4891 44.8059 31.7043 45.1027 31.7043H48.4352C48.784 31.7043 49.0586 31.4 49.0289 31.0512C48.5762 26.4273 44.7687 23.4586 39.6848 22.9465V20.5195C39.6848 20.193 39.4176 19.9258 39.091 19.9258H37.0055C36.6789 19.9258 36.4117 20.193 36.4117 20.5195V22.9688C31.157 23.4809 27.0453 26.3828 27.0453 31.8008C27.0453 36.818 30.7414 39.2375 34.623 40.1652L36.4563 40.6328V51.2238C33.1758 50.7859 31.3352 49.0344 30.9566 46.6742C30.9121 46.3922 30.6598 46.1844 30.3703 46.1844H26.9414C26.5926 46.1844 26.318 46.4813 26.3477 46.8301C26.6816 50.9121 29.7766 54.6676 36.382 55.15V57.4805C36.382 57.807 36.6492 58.0742 36.9758 58.0742H39.0836C39.4102 58.0742 39.6773 57.807 39.6773 57.473L39.6625 55.1203C45.4738 54.6082 49.6301 51.4984 49.6301 45.9172C49.6227 40.7664 46.3496 38.4656 41.5402 37.2781ZM36.4488 36.0758C36.0332 35.957 35.6844 35.8457 35.3355 35.7047C32.827 34.7992 31.6617 33.3371 31.6617 31.452C31.6617 28.7578 33.7027 27.2215 36.4488 26.8727V36.0758ZM39.6551 51.2461V41.323C39.8852 41.3898 40.093 41.4418 40.3082 41.4863C43.8187 42.5551 44.9988 44.0395 44.9988 46.318C44.9988 49.2199 42.8168 50.9641 39.6551 51.2461Z" fill="url(#paint0_linear)"/>
</g>
<defs>
<linearGradient id="paint0_linear" x1="64.7385" y1="6.47876" x2="2.24392" y2="28.3188" gradientUnits="userSpaceOnUse">
<stop stop-color="#0FA5A3"/>
<stop offset="1" stop-color="#57E6A0"/>
</linearGradient>
<clipPath id="clip0">
<rect width="72" height="72" fill="white"/>
</clipPath>
</defs>
</svg>
