<svg width="72" height="72" viewBox="0 0 72 72" fill="none" xmlns="http://www.w3.org/2000/svg">
<path d="M68.625 63H65.25V46.125H63V63H9V49.5H6.75V63H3.375C3.07663 63 2.79048 63.1185 2.5795 63.3295C2.36853 63.5405 2.25 63.8266 2.25 64.125C2.25167 65.6163 2.84485 67.0461 3.89937 68.1006C4.9539 69.1552 6.38367 69.7483 7.875 69.75H64.125C65.6163 69.7483 67.0461 69.1552 68.1006 68.1006C69.1552 67.0461 69.7483 65.6163 69.75 64.125C69.75 63.8266 69.6315 63.5405 69.4205 63.3295C69.2095 63.1185 68.9234 63 68.625 63ZM64.125 67.5H7.875C7.17723 67.4992 6.49681 67.2825 5.92708 66.8797C5.35734 66.4768 4.9262 65.9076 4.6928 65.25H67.3072C67.0738 65.9076 66.6427 66.4768 66.0729 66.8797C65.5032 67.2825 64.8228 67.4992 64.125 67.5Z" fill="black"/>
<path d="M68.625 63H65.25V46.125H63V63H9V49.5H6.75V63H3.375C3.07663 63 2.79048 63.1185 2.5795 63.3295C2.36853 63.5405 2.25 63.8266 2.25 64.125C2.25167 65.6163 2.84485 67.0461 3.89937 68.1006C4.9539 69.1552 6.38367 69.7483 7.875 69.75H64.125C65.6163 69.7483 67.0461 69.1552 68.1006 68.1006C69.1552 67.0461 69.7483 65.6163 69.75 64.125C69.75 63.8266 69.6315 63.5405 69.4205 63.3295C69.2095 63.1185 68.9234 63 68.625 63ZM64.125 67.5H7.875C7.17723 67.4992 6.49681 67.2825 5.92708 66.8797C5.35734 66.4768 4.9262 65.9076 4.6928 65.25H67.3072C67.0738 65.9076 66.6427 66.4768 66.0729 66.8797C65.5032 67.2825 64.8228 67.4992 64.125 67.5Z" fill="url(#paint0_linear)"/>
<path d="M66.375 10.125H61.875V12.375H66.375C66.6733 12.3753 66.9592 12.494 67.1701 12.7049C67.381 12.9158 67.4997 13.2017 67.5 13.5V40.5C67.4997 40.7983 67.381 41.0842 67.1701 41.2951C66.9592 41.506 66.6733 41.6247 66.375 41.625H50.625C50.3267 41.6247 50.0408 41.506 49.8299 41.2951C49.619 41.0842 49.5003 40.7983 49.5 40.5V20.25H47.25V40.5C47.251 41.3948 47.6069 42.2527 48.2396 42.8854C48.8723 43.5181 49.7302 43.874 50.625 43.875H66.375C67.2698 43.874 68.1277 43.5181 68.7604 42.8854C69.3931 42.2527 69.749 41.3948 69.75 40.5V13.5C69.749 12.6052 69.3931 11.7473 68.7604 11.1146C68.1277 10.4819 67.2698 10.126 66.375 10.125Z" fill="black"/>
<path d="M66.375 10.125H61.875V12.375H66.375C66.6733 12.3753 66.9592 12.494 67.1701 12.7049C67.381 12.9158 67.4997 13.2017 67.5 13.5V40.5C67.4997 40.7983 67.381 41.0842 67.1701 41.2951C66.9592 41.506 66.6733 41.6247 66.375 41.625H50.625C50.3267 41.6247 50.0408 41.506 49.8299 41.2951C49.619 41.0842 49.5003 40.7983 49.5 40.5V20.25H47.25V40.5C47.251 41.3948 47.6069 42.2527 48.2396 42.8854C48.8723 43.5181 49.7302 43.874 50.625 43.875H66.375C67.2698 43.874 68.1277 43.5181 68.7604 42.8854C69.3931 42.2527 69.749 41.3948 69.75 40.5V13.5C69.749 12.6052 69.3931 11.7473 68.7604 11.1146C68.1277 10.4819 67.2698 10.126 66.375 10.125Z" fill="url(#paint1_linear)"/>
<path d="M57.375 37.125H59.625V39.375H57.375V37.125Z" fill="black"/>
<path d="M57.375 37.125H59.625V39.375H57.375V37.125Z" fill="url(#paint2_linear)"/>
<path d="M38.25 18H49.125L53.325 21.15C53.4921 21.2754 53.6909 21.3517 53.899 21.3705C54.107 21.3892 54.3162 21.3497 54.5031 21.2562C54.69 21.1628 54.8471 21.0192 54.957 20.8414C55.0668 20.6637 55.125 20.4589 55.125 20.25V18H56.25C57.1448 17.999 58.0026 17.643 58.6353 17.0103C59.268 16.3776 59.624 15.5198 59.625 14.625V5.625C59.624 4.73021 59.268 3.87238 58.6353 3.23967C58.0026 2.60696 57.1448 2.25104 56.25 2.25H38.25C37.3552 2.25104 36.4974 2.60696 35.8647 3.23967C35.232 3.87238 34.876 4.73021 34.875 5.625V14.625C34.876 15.5198 35.232 16.3776 35.8647 17.0103C36.4974 17.643 37.3552 17.999 38.25 18ZM37.125 5.625C37.1253 5.32673 37.244 5.04078 37.4549 4.82987C37.6658 4.61897 37.9517 4.50033 38.25 4.5H56.25C56.5483 4.50033 56.8342 4.61897 57.0451 4.82987C57.256 5.04078 57.3747 5.32673 57.375 5.625V14.625C57.3747 14.9233 57.256 15.2092 57.0451 15.4201C56.8342 15.631 56.5483 15.7497 56.25 15.75H54C53.7016 15.75 53.4155 15.8685 53.2045 16.0795C52.9935 16.2905 52.875 16.5766 52.875 16.875V18L50.175 15.975C49.9803 15.8289 49.7434 15.75 49.5 15.75H38.25C37.9517 15.7497 37.6658 15.631 37.4549 15.4201C37.244 15.2092 37.1253 14.9233 37.125 14.625V5.625Z" fill="black"/>
<path d="M38.25 18H49.125L53.325 21.15C53.4921 21.2754 53.6909 21.3517 53.899 21.3705C54.107 21.3892 54.3162 21.3497 54.5031 21.2562C54.69 21.1628 54.8471 21.0192 54.957 20.8414C55.0668 20.6637 55.125 20.4589 55.125 20.25V18H56.25C57.1448 17.999 58.0026 17.643 58.6353 17.0103C59.268 16.3776 59.624 15.5198 59.625 14.625V5.625C59.624 4.73021 59.268 3.87238 58.6353 3.23967C58.0026 2.60696 57.1448 2.25104 56.25 2.25H38.25C37.3552 2.25104 36.4974 2.60696 35.8647 3.23967C35.232 3.87238 34.876 4.73021 34.875 5.625V14.625C34.876 15.5198 35.232 16.3776 35.8647 17.0103C36.4974 17.643 37.3552 17.999 38.25 18ZM37.125 5.625C37.1253 5.32673 37.244 5.04078 37.4549 4.82987C37.6658 4.61897 37.9517 4.50033 38.25 4.5H56.25C56.5483 4.50033 56.8342 4.61897 57.0451 4.82987C57.256 5.04078 57.3747 5.32673 57.375 5.625V14.625C57.3747 14.9233 57.256 15.2092 57.0451 15.4201C56.8342 15.631 56.5483 15.7497 56.25 15.75H54C53.7016 15.75 53.4155 15.8685 53.2045 16.0795C52.9935 16.2905 52.875 16.5766 52.875 16.875V18L50.175 15.975C49.9803 15.8289 49.7434 15.75 49.5 15.75H38.25C37.9517 15.7497 37.6658 15.631 37.4549 15.4201C37.244 15.2092 37.1253 14.9233 37.125 14.625V5.625Z" fill="url(#paint3_linear)"/>
<path d="M39.375 6.75H41.625V9H39.375V6.75Z" fill="black"/>
<path d="M39.375 6.75H41.625V9H39.375V6.75Z" fill="url(#paint4_linear)"/>
<path d="M43.875 6.75H55.125V9H43.875V6.75Z" fill="black"/>
<path d="M43.875 6.75H55.125V9H43.875V6.75Z" fill="url(#paint5_linear)"/>
<path d="M39.375 11.25H55.125V13.5H39.375V11.25Z" fill="black"/>
<path d="M39.375 11.25H55.125V13.5H39.375V11.25Z" fill="url(#paint6_linear)"/>
<path d="M5.625 31.5H21.1094L25.3718 33.6312C25.5434 33.7169 25.734 33.7574 25.9255 33.7488C26.1171 33.7402 26.3033 33.6828 26.4664 33.582C26.6295 33.4812 26.7642 33.3403 26.8576 33.1728C26.951 33.0053 27 32.8168 27 32.625V31.5H28.125C29.0198 31.499 29.8776 31.143 30.5103 30.5103C31.143 29.8776 31.499 29.0198 31.5 28.125V23.625C31.499 22.7302 31.143 21.8724 30.5103 21.2397C29.8776 20.607 29.0198 20.251 28.125 20.25H5.625C4.73021 20.251 3.87238 20.607 3.23967 21.2397C2.60696 21.8724 2.25104 22.7302 2.25 23.625V28.125C2.25104 29.0198 2.60696 29.8776 3.23967 30.5103C3.87238 31.143 4.73021 31.499 5.625 31.5ZM4.5 23.625C4.50033 23.3267 4.61897 23.0408 4.82987 22.8299C5.04078 22.619 5.32673 22.5003 5.625 22.5H28.125C28.4233 22.5003 28.7092 22.619 28.9201 22.8299C29.131 23.0408 29.2497 23.3267 29.25 23.625V28.125C29.2497 28.4233 29.131 28.7092 28.9201 28.9201C28.7092 29.131 28.4233 29.2497 28.125 29.25H25.875C25.5766 29.25 25.2905 29.3685 25.0795 29.5795C24.8685 29.7905 24.75 30.0766 24.75 30.375V30.8047L21.8782 29.3688C21.7219 29.2907 21.5497 29.25 21.375 29.25H5.625C5.32673 29.2497 5.04078 29.131 4.82987 28.9201C4.61897 28.7092 4.50033 28.4233 4.5 28.125V23.625Z" fill="black"/>
<path d="M5.625 31.5H21.1094L25.3718 33.6312C25.5434 33.7169 25.734 33.7574 25.9255 33.7488C26.1171 33.7402 26.3033 33.6828 26.4664 33.582C26.6295 33.4812 26.7642 33.3403 26.8576 33.1728C26.951 33.0053 27 32.8168 27 32.625V31.5H28.125C29.0198 31.499 29.8776 31.143 30.5103 30.5103C31.143 29.8776 31.499 29.0198 31.5 28.125V23.625C31.499 22.7302 31.143 21.8724 30.5103 21.2397C29.8776 20.607 29.0198 20.251 28.125 20.25H5.625C4.73021 20.251 3.87238 20.607 3.23967 21.2397C2.60696 21.8724 2.25104 22.7302 2.25 23.625V28.125C2.25104 29.0198 2.60696 29.8776 3.23967 30.5103C3.87238 31.143 4.73021 31.499 5.625 31.5ZM4.5 23.625C4.50033 23.3267 4.61897 23.0408 4.82987 22.8299C5.04078 22.619 5.32673 22.5003 5.625 22.5H28.125C28.4233 22.5003 28.7092 22.619 28.9201 22.8299C29.131 23.0408 29.2497 23.3267 29.25 23.625V28.125C29.2497 28.4233 29.131 28.7092 28.9201 28.9201C28.7092 29.131 28.4233 29.2497 28.125 29.25H25.875C25.5766 29.25 25.2905 29.3685 25.0795 29.5795C24.8685 29.7905 24.75 30.0766 24.75 30.375V30.8047L21.8782 29.3688C21.7219 29.2907 21.5497 29.25 21.375 29.25H5.625C5.32673 29.2497 5.04078 29.131 4.82987 28.9201C4.61897 28.7092 4.50033 28.4233 4.5 28.125V23.625Z" fill="url(#paint7_linear)"/>
<path d="M6.75 24.75H9V27H6.75V24.75Z" fill="black"/>
<path d="M6.75 24.75H9V27H6.75V24.75Z" fill="url(#paint8_linear)"/>
<path d="M11.25 24.75H27V27H11.25V24.75Z" fill="black"/>
<path d="M11.25 24.75H27V27H11.25V24.75Z" fill="url(#paint9_linear)"/>
<path d="M5.625 47.25H21.1094L25.3718 49.3812C25.5434 49.4669 25.734 49.5074 25.9255 49.4988C26.1171 49.4902 26.3033 49.4328 26.4664 49.332C26.6295 49.2311 26.7642 49.0903 26.8576 48.9228C26.951 48.7553 27 48.5668 27 48.375V47.25H28.125C29.0198 47.249 29.8776 46.893 30.5103 46.2603C31.143 45.6276 31.499 44.7698 31.5 43.875V39.375C31.499 38.4802 31.143 37.6224 30.5103 36.9897C29.8776 36.357 29.0198 36.001 28.125 36H5.625C4.73021 36.001 3.87238 36.357 3.23967 36.9897C2.60696 37.6224 2.25104 38.4802 2.25 39.375V43.875C2.25104 44.7698 2.60696 45.6276 3.23967 46.2603C3.87238 46.893 4.73021 47.249 5.625 47.25ZM4.5 39.375C4.50033 39.0767 4.61897 38.7908 4.82987 38.5799C5.04078 38.369 5.32673 38.2503 5.625 38.25H28.125C28.4233 38.2503 28.7092 38.369 28.9201 38.5799C29.131 38.7908 29.2497 39.0767 29.25 39.375V43.875C29.2497 44.1733 29.131 44.4592 28.9201 44.6701C28.7092 44.881 28.4233 44.9997 28.125 45H25.875C25.5766 45 25.2905 45.1185 25.0795 45.3295C24.8685 45.5405 24.75 45.8266 24.75 46.125V46.5547L21.8782 45.1188C21.7219 45.0407 21.5497 45 21.375 45H5.625C5.32673 44.9997 5.04078 44.881 4.82987 44.6701C4.61897 44.4592 4.50033 44.1733 4.5 43.875V39.375Z" fill="black"/>
<path d="M5.625 47.25H21.1094L25.3718 49.3812C25.5434 49.4669 25.734 49.5074 25.9255 49.4988C26.1171 49.4902 26.3033 49.4328 26.4664 49.332C26.6295 49.2311 26.7642 49.0903 26.8576 48.9228C26.951 48.7553 27 48.5668 27 48.375V47.25H28.125C29.0198 47.249 29.8776 46.893 30.5103 46.2603C31.143 45.6276 31.499 44.7698 31.5 43.875V39.375C31.499 38.4802 31.143 37.6224 30.5103 36.9897C29.8776 36.357 29.0198 36.001 28.125 36H5.625C4.73021 36.001 3.87238 36.357 3.23967 36.9897C2.60696 37.6224 2.25104 38.4802 2.25 39.375V43.875C2.25104 44.7698 2.60696 45.6276 3.23967 46.2603C3.87238 46.893 4.73021 47.249 5.625 47.25ZM4.5 39.375C4.50033 39.0767 4.61897 38.7908 4.82987 38.5799C5.04078 38.369 5.32673 38.2503 5.625 38.25H28.125C28.4233 38.2503 28.7092 38.369 28.9201 38.5799C29.131 38.7908 29.2497 39.0767 29.25 39.375V43.875C29.2497 44.1733 29.131 44.4592 28.9201 44.6701C28.7092 44.881 28.4233 44.9997 28.125 45H25.875C25.5766 45 25.2905 45.1185 25.0795 45.3295C24.8685 45.5405 24.75 45.8266 24.75 46.125V46.5547L21.8782 45.1188C21.7219 45.0407 21.5497 45 21.375 45H5.625C5.32673 44.9997 5.04078 44.881 4.82987 44.6701C4.61897 44.4592 4.50033 44.1733 4.5 43.875V39.375Z" fill="url(#paint10_linear)"/>
<path d="M6.75 40.5H9V42.75H6.75V40.5Z" fill="black"/>
<path d="M6.75 40.5H9V42.75H6.75V40.5Z" fill="url(#paint11_linear)"/>
<path d="M11.25 40.5H27V42.75H11.25V40.5Z" fill="black"/>
<path d="M11.25 40.5H27V42.75H11.25V40.5Z" fill="url(#paint12_linear)"/>
<path d="M33.75 22.5H45V24.75H33.75V22.5Z" fill="black"/>
<path d="M33.75 22.5H45V24.75H33.75V22.5Z" fill="url(#paint13_linear)"/>
<path d="M33.75 27H45V29.25H33.75V27Z" fill="black"/>
<path d="M33.75 27H45V29.25H33.75V27Z" fill="url(#paint14_linear)"/>
<path d="M11.25 49.5V59.625C11.25 59.9234 11.3685 60.2095 11.5795 60.4205C11.7905 60.6315 12.0766 60.75 12.375 60.75H59.625C59.9234 60.75 60.2095 60.6315 60.4205 60.4205C60.6315 60.2095 60.75 59.9234 60.75 59.625V46.125H58.5V58.5H13.5V49.5H11.25Z" fill="black"/>
<path d="M11.25 49.5V59.625C11.25 59.9234 11.3685 60.2095 11.5795 60.4205C11.7905 60.6315 12.0766 60.75 12.375 60.75H59.625C59.9234 60.75 60.2095 60.6315 60.4205 60.4205C60.6315 60.2095 60.75 59.9234 60.75 59.625V46.125H58.5V58.5H13.5V49.5H11.25Z" fill="url(#paint15_linear)"/>
<path d="M5.625 15.75H7.875V18H5.625V15.75Z" fill="black"/>
<path d="M5.625 15.75H7.875V18H5.625V15.75Z" fill="url(#paint16_linear)"/>
<path d="M10.125 15.75H28.125V18H10.125V15.75Z" fill="black"/>
<path d="M10.125 15.75H28.125V18H10.125V15.75Z" fill="url(#paint17_linear)"/>
<path d="M15.75 54H56.25V56.25H15.75V54Z" fill="black"/>
<path d="M15.75 54H56.25V56.25H15.75V54Z" fill="url(#paint18_linear)"/>
<defs>
<linearGradient id="paint0_linear" x1="63.1406" y1="46.3839" x2="27.496" y2="81.9746" gradientUnits="userSpaceOnUse">
<stop stop-color="#0FA5A3"/>
<stop offset="1" stop-color="#57E6A0"/>
</linearGradient>
<linearGradient id="paint1_linear" x1="67.5469" y1="10.4949" x2="45.0413" y2="15.7382" gradientUnits="userSpaceOnUse">
<stop stop-color="#0FA5A3"/>
<stop offset="1" stop-color="#57E6A0"/>
</linearGradient>
<linearGradient id="paint2_linear" x1="59.4047" y1="37.1497" x2="57.2902" y2="37.8886" gradientUnits="userSpaceOnUse">
<stop stop-color="#0FA5A3"/>
<stop offset="1" stop-color="#57E6A0"/>
</linearGradient>
<linearGradient id="paint3_linear" x1="57.2015" y1="2.45959" x2="35.5335" y2="12.2591" gradientUnits="userSpaceOnUse">
<stop stop-color="#0FA5A3"/>
<stop offset="1" stop-color="#57E6A0"/>
</linearGradient>
<linearGradient id="paint4_linear" x1="41.4047" y1="6.77466" x2="39.2902" y2="7.51361" gradientUnits="userSpaceOnUse">
<stop stop-color="#0FA5A3"/>
<stop offset="1" stop-color="#57E6A0"/>
</linearGradient>
<linearGradient id="paint5_linear" x1="54.0234" y1="6.77466" x2="51.0965" y2="11.889" gradientUnits="userSpaceOnUse">
<stop stop-color="#0FA5A3"/>
<stop offset="1" stop-color="#57E6A0"/>
</linearGradient>
<linearGradient id="paint6_linear" x1="53.5828" y1="11.2747" x2="51.2048" y2="17.092" gradientUnits="userSpaceOnUse">
<stop stop-color="#0FA5A3"/>
<stop offset="1" stop-color="#57E6A0"/>
</linearGradient>
<linearGradient id="paint7_linear" x1="28.6359" y1="20.3979" x2="9.03086" y2="35.2427" gradientUnits="userSpaceOnUse">
<stop stop-color="#0FA5A3"/>
<stop offset="1" stop-color="#57E6A0"/>
</linearGradient>
<linearGradient id="paint8_linear" x1="8.77969" y1="24.7747" x2="6.66521" y2="25.5136" gradientUnits="userSpaceOnUse">
<stop stop-color="#0FA5A3"/>
<stop offset="1" stop-color="#57E6A0"/>
</linearGradient>
<linearGradient id="paint9_linear" x1="25.4578" y1="24.7747" x2="23.0798" y2="30.592" gradientUnits="userSpaceOnUse">
<stop stop-color="#0FA5A3"/>
<stop offset="1" stop-color="#57E6A0"/>
</linearGradient>
<linearGradient id="paint10_linear" x1="28.6359" y1="36.1479" x2="9.03086" y2="50.9927" gradientUnits="userSpaceOnUse">
<stop stop-color="#0FA5A3"/>
<stop offset="1" stop-color="#57E6A0"/>
</linearGradient>
<linearGradient id="paint11_linear" x1="8.77969" y1="40.5247" x2="6.66521" y2="41.2636" gradientUnits="userSpaceOnUse">
<stop stop-color="#0FA5A3"/>
<stop offset="1" stop-color="#57E6A0"/>
</linearGradient>
<linearGradient id="paint12_linear" x1="25.4578" y1="40.5247" x2="23.0798" y2="46.342" gradientUnits="userSpaceOnUse">
<stop stop-color="#0FA5A3"/>
<stop offset="1" stop-color="#57E6A0"/>
</linearGradient>
<linearGradient id="paint13_linear" x1="43.8984" y1="22.5247" x2="40.9715" y2="27.639" gradientUnits="userSpaceOnUse">
<stop stop-color="#0FA5A3"/>
<stop offset="1" stop-color="#57E6A0"/>
</linearGradient>
<linearGradient id="paint14_linear" x1="43.8984" y1="27.0247" x2="40.9715" y2="32.139" gradientUnits="userSpaceOnUse">
<stop stop-color="#0FA5A3"/>
<stop offset="1" stop-color="#57E6A0"/>
</linearGradient>
<linearGradient id="paint15_linear" x1="55.9031" y1="46.2853" x2="34.1448" y2="72.0215" gradientUnits="userSpaceOnUse">
<stop stop-color="#0FA5A3"/>
<stop offset="1" stop-color="#57E6A0"/>
</linearGradient>
<linearGradient id="paint16_linear" x1="7.65469" y1="15.7747" x2="5.54021" y2="16.5136" gradientUnits="userSpaceOnUse">
<stop stop-color="#0FA5A3"/>
<stop offset="1" stop-color="#57E6A0"/>
</linearGradient>
<linearGradient id="paint17_linear" x1="26.3625" y1="15.7747" x2="24.2095" y2="21.794" gradientUnits="userSpaceOnUse">
<stop stop-color="#0FA5A3"/>
<stop offset="1" stop-color="#57E6A0"/>
</linearGradient>
<linearGradient id="paint18_linear" x1="52.2843" y1="54.0247" x2="51.2316" y2="60.6468" gradientUnits="userSpaceOnUse">
<stop stop-color="#0FA5A3"/>
<stop offset="1" stop-color="#57E6A0"/>
</linearGradient>
</defs>
</svg>
