<?xml version="1.0" encoding="UTF-8"?>
<!DOCTYPE svg PUBLIC "-//W3C//DTD SVG 1.1//EN" "http://www.w3.org/Graphics/SVG/1.1/DTD/svg11.dtd">
<!-- Creator: CorelDRAW X7 -->
<svg xmlns="http://www.w3.org/2000/svg" xml:space="preserve" width="23.3678mm" height="47.4132mm" version="1.1" style="shape-rendering:geometricPrecision; text-rendering:geometricPrecision; image-rendering:optimizeQuality; fill-rule:evenodd; clip-rule:evenodd"
viewBox="0 0 2337 4741"
 xmlns:xlink="http://www.w3.org/1999/xlink">
 <defs>
  <style type="text/css">
   <![CDATA[
    .str0 {stroke:black;stroke-width:67.73}
    .fil2 {fill:none}
    .fil1 {fill:#1C1C1C}
    .fil3 {fill:#232323}
    .fil4 {fill:#333333}
    .fil6 {fill:#54DEA5}
    .fil5 {fill:white}
    .fil0 {fill:white;fill-opacity:0.501961}
   ]]>
  </style>
    <clipPath id="id0">
     <path d="M192 45l1953 0c95,0 172,77 172,172l0 4307c0,95 -77,172 -172,172l-1953 0c-95,0 -172,-77 -172,-172l0 -4307c0,-95 77,-172 172,-172z"/>
    </clipPath>
    <clipPath id="id1">
     <path d="M254 102l1835 0c95,0 171,77 171,172l0 2022c0,95 -76,172 -171,172l-1835 0c-94,0 -171,-77 -171,-172l0 -2022c0,-95 77,-172 171,-172z"/>
    </clipPath>
 </defs>
 <g id="Layer_x0020_1">
  <metadata id="CorelCorpID_0Corel-Layer"/>
  <path class="fil0" d="M581 1372c0,16 -13,29 -29,29 -16,0 -29,-13 -29,-29 0,-16 13,-29 29,-29 16,0 29,13 29,29z"/>
  <path class="fil0" d="M1005 1372c0,16 -13,29 -29,29 -16,0 -29,-13 -29,-29 0,-16 13,-29 29,-29 16,0 29,13 29,29z"/>
  <path class="fil0" d="M581 1796c0,16 -13,29 -29,29 -16,0 -29,-13 -29,-29 0,-16 13,-29 29,-29 16,0 29,13 29,29z"/>
  <path class="fil0" d="M1005 1796c0,16 -13,29 -29,29 -16,0 -29,-13 -29,-29 0,-16 13,-29 29,-29 16,0 29,13 29,29z"/>
  <g>
   <g style="clip-path:url(#id0)">
    <image x="20" y="45" width="2297" height="4651" xlink:href="Untitled-1_Images\Untitled-1_ImgID1.png"/>
   </g>
  </g>
  <path class="fil1" d="M192 45l1953 0c95,0 172,77 172,172l0 4307c0,95 -77,172 -172,172l-1953 0c-95,0 -172,-77 -172,-172l0 -4307c0,-95 77,-172 172,-172z"/>
  <path class="fil2 str0" d="M214 82l1909 0c101,0 184,83 184,185l0 4244c0,102 -83,185 -184,185l-1909 0c-102,0 -184,-83 -184,-185l0 -4244c0,-102 82,-185 184,-185z"/>
  <g>
   <g style="clip-path:url(#id1)">
    <image x="83" y="102" width="2178" height="2366" xlink:href="Untitled-1_Images\Untitled-1_ImgID2.png"/>
   </g>
  </g>
  <path class="fil3" d="M254 102l1835 0c95,0 171,77 171,172l0 2022c0,95 -76,172 -171,172l-1835 0c-94,0 -171,-77 -171,-172l0 -2022c0,-95 77,-172 171,-172z"/>
  <path class="fil4" d="M254 102l1835 0c95,0 171,77 171,172l0 2022c0,95 -76,172 -171,172l-1835 0c-94,0 -171,-77 -171,-172l0 -2022c0,-95 77,-172 171,-172z"/>
  <path class="fil5" d="M611 1298l0 -161c0,-3 1,-5 2,-6 2,-2 4,-2 7,-2l14 0c4,0 6,0 7,2 1,1 2,3 2,6l0 161c0,3 -1,6 -2,7 -1,1 -3,2 -7,2l-14 0c-3,0 -5,-1 -7,-2 -1,-1 -2,-4 -2,-7zm106 -160l-15 44c-1,3 -2,5 -4,7 -1,1 -3,1 -6,1l-5 0c-3,0 -4,0 -5,-1 -1,-1 -1,-3 -1,-5l7 -46c0,-4 1,-6 2,-7 2,-2 4,-2 8,-2l11 0c8,0 10,3 8,9zm111 43c14,-5 29,-8 44,-8 33,0 50,17 50,50l0 76c0,3 -1,5 -2,6 -1,1 -3,2 -6,2l-14 0c-3,0 -5,-1 -6,-2 -1,-1 -1,-3 -1,-6l0 -75c0,-16 -9,-24 -25,-24 -7,0 -15,1 -24,4 2,5 3,11 3,19l0 76c0,3 -1,5 -2,6 -1,1 -3,2 -6,2l-14 0c-3,0 -5,-1 -6,-2 -1,-1 -2,-3 -2,-6l0 -75c0,-16 -8,-24 -24,-24 -7,0 -14,1 -20,3 -2,0 -2,1 -2,3l0 93c0,3 -1,5 -2,6 -1,1 -3,2 -6,2l-14 0c-2,0 -4,-1 -6,-2 -1,-1 -1,-3 -1,-6l0 -103c0,-4 0,-7 2,-9 1,-2 4,-4 7,-5 14,-6 29,-9 46,-9 13,0 24,3 31,8zm192 18c9,-17 26,-26 52,-26 36,0 54,17 54,52l0 65c0,4 -1,7 -2,9 -2,2 -4,4 -8,5 -10,4 -25,7 -45,7 -21,0 -36,-4 -44,-10 -8,-7 -12,-17 -12,-31 0,-15 5,-25 13,-31 9,-6 24,-9 44,-9 0,0 9,0 24,1l0 -7c0,-9 -2,-15 -6,-19 -3,-4 -10,-6 -19,-6 -12,0 -21,4 -26,12 -2,3 -3,4 -5,5 -1,0 -3,0 -6,-1l-10 -5c-5,-2 -7,-6 -4,-11zm76 82l0 -26c-5,-1 -9,-1 -14,-1 -5,0 -8,0 -10,0 -2,-1 -3,-1 -3,-1 -9,0 -15,2 -19,4 -3,3 -5,7 -5,13 0,6 2,10 5,13 3,2 10,4 19,4 10,0 18,-1 25,-2 1,-1 2,-2 2,-4zm123 169c9,-17 27,-26 52,-26 36,0 54,17 54,52l0 65c0,4 -1,7 -2,9 -1,2 -3,4 -7,5 -10,4 -25,7 -45,7 -22,0 -36,-4 -44,-10 -8,-7 -12,-17 -12,-31 0,-15 4,-25 13,-31 9,-6 23,-9 44,-9 0,0 8,0 24,1l0 -7c0,-9 -2,-15 -6,-19 -4,-4 -10,-6 -19,-6 -13,0 -21,4 -26,12 -2,3 -4,4 -5,5 -1,0 -3,0 -6,-1l-10 -5c-6,-2 -7,-6 -5,-11zm77 82l0 -26c-5,0 -10,-1 -15,-1 -4,0 -7,0 -9,0 -2,0 -3,-1 -3,-1 -9,0 -16,2 -19,4 -4,3 -5,7 -5,13 0,6 1,10 5,13 3,2 9,4 18,4 10,0 19,-1 25,-2 2,-1 3,-2 3,-4zm62 -27l0 -28c0,-35 18,-53 56,-53 20,0 35,3 46,8 4,2 6,3 7,5 1,2 2,5 2,9l0 116c0,18 -5,31 -14,41 -9,9 -23,14 -41,14 -25,0 -43,-8 -52,-24 -4,-6 -3,-10 3,-13l9 -5c3,-2 6,-2 7,-2 2,1 4,2 6,5 6,9 14,13 26,13 18,0 27,-9 27,-27l0 -13c-12,3 -22,5 -30,5 -18,0 -31,-5 -39,-13 -9,-9 -13,-21 -13,-38zm80 -52c-7,-1 -15,-2 -22,-2 -19,0 -29,9 -29,27l0 26c0,8 2,14 7,19 4,4 11,6 20,6 7,0 16,-1 26,-3l0 -70c0,-1 -1,-2 -2,-3zm63 55l0 -30c0,-17 4,-31 14,-40 10,-9 25,-14 44,-14 18,0 33,5 43,14 10,10 15,22 15,38l0 15c0,8 -4,11 -12,11l-75 0 0 9c0,9 2,15 7,19 5,4 12,7 21,7 14,0 24,-5 30,-14 2,-3 4,-4 5,-5 2,0 5,1 8,2l8 5c6,3 7,7 4,13 -10,16 -28,24 -55,24 -19,0 -33,-5 -43,-14 -10,-10 -14,-23 -14,-40zm87 -28l0 -6c0,-8 -3,-14 -8,-19 -4,-4 -12,-6 -21,-6 -10,0 -17,2 -22,6 -5,5 -7,11 -7,19l0 6 58 0zm70 -47c14,-6 30,-9 49,-9 18,0 31,4 39,13 9,9 14,21 14,38l0 75c0,3 -1,5 -2,6 -1,1 -3,2 -6,2l-14 0c-3,0 -5,-1 -6,-2 -1,-1 -2,-3 -2,-6l0 -75c0,-16 -9,-24 -27,-24 -8,0 -16,1 -24,3 -1,0 -2,1 -2,2l0 94c0,3 0,5 -2,6 -1,1 -2,2 -5,2l-14 0c-3,0 -5,-1 -6,-2 -1,-1 -2,-3 -2,-6l0 -103c0,-4 1,-7 2,-9 1,-2 4,-4 8,-5zm157 -35l14 0c3,0 5,0 6,1 1,1 2,3 2,6l0 23 28 0c3,0 5,0 6,2 2,1 2,3 2,5l0 12c0,3 0,5 -2,6 -1,1 -3,2 -6,2l-28 0 0 50c0,12 2,20 6,24 3,3 11,5 22,5 3,0 5,1 6,2 2,1 2,3 2,6l0 11c0,3 0,5 -2,6 -1,2 -3,2 -6,2 -21,1 -36,-3 -44,-11 -9,-8 -13,-22 -13,-44l0 -51 -18 0c-3,0 -5,-1 -6,-2 -1,-1 -1,-3 -1,-6l0 -12c0,-2 0,-4 1,-5 1,-2 3,-2 6,-2l18 0 0 -23c0,-3 0,-5 1,-6 2,-1 4,-1 6,-1z"/>
  <path class="fil6" d="M1281 1173l8 0c2,0 4,1 6,2 1,1 1,3 1,6l0 11c0,3 0,5 -1,6 -2,1 -4,2 -6,2l-9 0c-10,0 -18,1 -24,3 -2,0 -3,1 -3,3l0 93c0,3 0,5 -2,6 -1,1 -3,2 -5,2l-14 0c-3,0 -5,-1 -6,-2 -1,-1 -2,-3 -2,-6l0 -104c0,-4 1,-7 2,-9 1,-2 4,-4 8,-5 12,-5 28,-7 47,-8zm33 84l0 -30c0,-17 5,-31 15,-40 10,-9 24,-14 43,-14 19,0 33,5 43,14 10,10 15,22 15,38l0 15c0,8 -3,11 -11,11l-76 0 0 9c0,9 3,15 7,19 5,4 13,7 22,7 14,0 24,-5 29,-14 2,-3 4,-4 6,-5 2,0 4,1 7,2l9 5c6,3 7,7 3,13 -10,16 -28,24 -54,24 -19,0 -34,-5 -43,-14 -10,-10 -15,-23 -15,-40zm87 -28l0 -6c0,-8 -2,-14 -7,-19 -5,-4 -12,-6 -22,-6 -9,0 -16,2 -21,6 -5,5 -8,11 -8,19l0 6 58 0zm59 -30c9,-17 26,-26 52,-26 36,0 54,17 54,52l0 65c0,4 -1,7 -2,9 -2,2 -4,4 -8,5 -10,4 -25,7 -45,7 -21,0 -36,-4 -44,-10 -8,-7 -12,-17 -12,-31 0,-15 5,-25 13,-31 9,-6 24,-9 44,-9 0,0 9,0 24,1l0 -7c0,-9 -2,-15 -6,-19 -3,-4 -10,-6 -19,-6 -12,0 -21,4 -26,12 -2,3 -3,4 -5,5 -1,0 -3,0 -6,-1l-10 -5c-5,-2 -7,-6 -4,-11zm76 82l0 -26c-5,-1 -9,-1 -14,-1 -5,0 -8,0 -10,0 -2,-1 -3,-1 -3,-1 -9,0 -15,2 -19,4 -3,3 -5,7 -5,13 0,6 2,10 5,13 3,2 10,4 19,4 10,0 18,-1 25,-2 1,-1 2,-2 2,-4zm95 -152l0 170c0,3 -1,5 -2,6 -1,1 -3,2 -6,2l-13 0c-4,0 -6,-1 -7,-2 -1,-1 -1,-3 -1,-6l0 -170c0,-3 0,-5 1,-6 1,-1 3,-2 7,-2l13 0c3,0 5,1 6,2 1,1 2,3 2,6zm-1250 379l0 -30c0,-17 5,-31 15,-40 10,-9 24,-14 43,-14 19,0 33,5 43,14 10,10 15,22 15,38l0 15c0,8 -4,11 -11,11l-76 0 0 9c0,9 2,15 7,19 5,4 12,7 22,7 14,0 23,-5 29,-14 2,-3 4,-4 6,-5 2,0 4,1 7,2l9 5c6,3 7,7 3,13 -10,16 -28,24 -54,24 -19,0 -34,-5 -44,-14 -9,-10 -14,-23 -14,-40zm87 -28l0 -6c0,-8 -2,-14 -7,-19 -5,-4 -12,-6 -22,-6 -9,0 -16,2 -21,6 -5,5 -8,11 -8,19l0 6 58 0zm59 -15c0,-13 4,-23 13,-30 9,-7 22,-11 39,-11 27,0 44,9 53,27 3,5 2,9 -4,11l-11 5c-3,1 -5,1 -6,1 -1,0 -3,-2 -4,-5 -5,-8 -14,-13 -28,-13 -15,0 -23,5 -23,14 0,5 2,9 6,11 4,2 12,3 23,4 18,2 31,6 39,12 8,5 12,15 12,29 0,13 -4,23 -14,30 -9,8 -23,12 -40,12 -29,0 -48,-10 -56,-31 -2,-5 0,-8 5,-10l11 -4c5,-2 9,0 11,5 3,9 13,14 28,14 18,0 27,-5 27,-15 0,-5 -2,-9 -7,-11 -4,-2 -12,-4 -23,-5 -12,-1 -22,-3 -29,-6 -5,-2 -9,-4 -12,-7 -7,-6 -10,-15 -10,-27zm157 -67l14 0c3,0 5,0 6,1 1,1 2,3 2,6l0 23 28 0c3,0 5,0 6,2 2,1 2,3 2,5l0 12c0,3 0,5 -2,6 -1,1 -3,2 -6,2l-28 0 0 50c0,12 2,20 6,24 4,3 11,5 22,5 3,0 5,1 6,2 2,1 2,3 2,6l0 11c0,3 0,5 -2,6 -1,2 -3,2 -6,2 -21,1 -36,-3 -44,-11 -9,-8 -13,-22 -13,-44l0 -51 -18 0c-2,0 -4,-1 -6,-2 -1,-1 -1,-3 -1,-6l0 -12c0,-2 0,-4 1,-5 2,-2 4,-2 6,-2l18 0 0 -23c0,-3 0,-5 1,-6 2,-1 4,-1 6,-1zm84 52c9,-17 26,-26 52,-26 36,0 54,17 54,52l0 65c0,4 -1,7 -2,9 -1,2 -4,4 -7,5 -10,4 -25,7 -45,7 -22,0 -36,-4 -44,-10 -8,-7 -12,-17 -12,-31 0,-15 4,-25 13,-31 8,-6 23,-9 44,-9 0,0 8,0 24,1l0 -7c0,-9 -2,-15 -6,-19 -4,-4 -11,-6 -19,-6 -13,0 -22,4 -27,12 -2,3 -3,4 -5,5 -1,0 -3,0 -6,-1l-10 -5c-5,-2 -7,-6 -4,-11zm77 82l0 -26c-5,0 -10,-1 -15,-1 -4,0 -8,0 -10,0 -1,0 -2,-1 -3,-1 -9,0 -15,2 -18,4 -4,3 -6,7 -6,13 0,6 2,10 5,13 4,2 10,4 19,4 10,0 19,-1 25,-2 2,-1 3,-2 3,-4zm84 -134l13 0c3,0 5,0 6,1 1,1 2,3 2,6l0 23 29 0c2,0 4,0 6,2 1,1 1,3 1,5l0 12c0,3 0,5 -1,6 -2,1 -4,2 -6,2l-29 0 0 50c0,12 2,20 6,24 4,3 11,5 22,5 3,0 5,1 7,2 1,1 1,3 1,6l0 11c0,3 0,5 -1,6 -2,2 -4,2 -7,2 -21,1 -35,-3 -44,-11 -9,-8 -13,-22 -13,-44l0 -51 -17 0c-3,0 -5,-1 -7,-2 -1,-1 -1,-3 -1,-6l0 -12c0,-2 0,-4 1,-5 2,-2 4,-2 7,-2l17 0 0 -23c0,-3 0,-5 2,-6 1,-1 3,-1 6,-1zm81 110l0 -30c0,-17 5,-31 15,-40 10,-9 24,-14 43,-14 19,0 33,5 43,14 10,10 15,22 15,38l0 15c0,8 -4,11 -11,11l-76 0 0 9c0,9 3,15 7,19 5,4 13,7 22,7 14,0 24,-5 29,-14 2,-3 4,-4 6,-5 2,0 4,1 7,2l9 5c6,3 7,7 3,13 -10,16 -28,24 -54,24 -19,0 -34,-5 -43,-14 -10,-10 -15,-23 -15,-40zm87 -28l0 -6c0,-8 -2,-14 -7,-19 -5,-4 -12,-6 -22,-6 -9,0 -16,2 -21,6 -5,5 -8,11 -8,19l0 6 58 0z"/>
  <path class="fil5" d="M866 3470l0 -161c0,-3 0,-6 2,-7 1,-1 3,-2 6,-2l15 0c3,0 5,1 6,2 2,1 2,4 2,7l0 161c0,3 0,5 -2,7 -1,1 -3,1 -6,1l-15 0c-3,0 -5,0 -6,-1 -2,-2 -2,-4 -2,-7zm105 -161l-15 45c-1,3 -2,5 -3,6 -2,1 -4,2 -7,2l-5 0c-3,0 -4,-1 -5,-2 0,0 -1,-2 0,-4l6 -47c0,-3 1,-6 3,-7 1,-1 4,-2 7,-2l11 0c8,0 11,3 8,9zm112 44c13,-6 28,-8 44,-8 32,0 49,16 49,50l0 76c0,2 -1,4 -2,6 -1,1 -3,1 -6,1l-13 0c-3,0 -5,0 -6,-1 -2,-2 -2,-4 -2,-6l0 -75c0,-17 -8,-25 -25,-25 -7,0 -15,2 -24,5 2,5 3,11 3,19l0 76c0,2 -1,4 -2,6 -1,1 -3,1 -6,1l-14 0c-2,0 -4,0 -6,-1 -1,-2 -1,-4 -1,-6l0 -75c0,-17 -8,-25 -25,-25 -7,0 -14,1 -20,3 -1,1 -2,2 -2,3l0 94c0,2 -1,4 -2,6 -1,1 -3,1 -6,1l-13 0c-3,0 -5,0 -6,-1 -2,-2 -2,-4 -2,-6l0 -104c0,-4 1,-7 2,-8 1,-2 4,-4 8,-6 13,-6 28,-8 45,-8 14,0 24,2 32,8zm191 18c9,-18 26,-26 52,-26 36,0 54,17 54,51l0 65c0,5 -1,8 -2,10 -1,1 -4,3 -7,5 -10,4 -26,6 -45,6 -22,0 -37,-3 -44,-10 -8,-6 -12,-17 -12,-30 0,-15 4,-26 13,-32 8,-6 23,-9 44,-9 0,0 8,1 24,1l0 -7c0,-8 -2,-14 -6,-18 -4,-4 -11,-7 -19,-7 -13,0 -22,4 -27,12 -2,3 -3,5 -5,5 -1,1 -3,0 -6,-1l-10 -4c-5,-3 -7,-6 -4,-11zm77 82l0 -27c-5,0 -10,0 -15,0 -4,-1 -8,-1 -10,-1 -2,0 -3,0 -3,0 -9,0 -15,1 -19,4 -3,2 -5,7 -5,12 0,6 2,10 5,13 4,3 10,4 19,4 10,0 19,-1 25,-2 2,-1 3,-2 3,-3z"/>
  <path class="fil6" d="M484 3544l14 0c3,0 5,0 6,1 1,2 2,4 2,6l0 48c1,-1 5,-1 11,-2 7,-1 13,-1 19,-1 35,0 52,16 52,50l0 76c0,3 0,5 -2,6 -1,1 -3,1 -6,1l-13 0c-3,0 -5,0 -6,-1 -1,-1 -2,-3 -2,-6l0 -75c0,-17 -9,-25 -27,-25 -13,0 -21,2 -26,4l0 96c0,3 -1,5 -2,6 -1,1 -3,1 -6,1l-14 0c-2,0 -4,0 -6,-1 -1,-1 -1,-3 -1,-6l0 -171c0,-2 0,-4 1,-6 2,-1 4,-1 6,-1zm136 139l0 -37c0,-16 5,-28 15,-37 10,-9 25,-13 43,-13 18,0 33,4 43,13 10,9 15,21 15,37l0 37c0,16 -5,28 -15,37 -10,9 -25,13 -43,13 -18,0 -33,-4 -43,-13 -10,-9 -15,-21 -15,-37zm87 0l0 -37c0,-8 -3,-14 -8,-18 -5,-4 -12,-6 -21,-6 -9,0 -16,2 -21,6 -5,4 -8,10 -8,18l0 37c0,8 3,13 8,18 5,4 12,6 21,6 9,0 16,-2 21,-6 5,-5 8,-10 8,-18zm149 -79c13,-6 28,-8 44,-8 33,0 49,16 49,50l0 76c0,3 -1,5 -2,6 -1,1 -3,1 -5,1l-14 0c-3,0 -5,0 -6,-1 -1,-1 -2,-3 -2,-6l0 -75c0,-17 -8,-25 -24,-25 -8,0 -16,2 -25,5 2,5 3,11 3,19l0 76c0,3 -1,5 -2,6 -1,1 -3,1 -6,1l-13 0c-3,0 -5,0 -6,-1 -2,-1 -2,-3 -2,-6l0 -75c0,-17 -8,-25 -25,-25 -7,0 -14,1 -20,3 -1,1 -2,2 -2,3l0 94c0,3 0,5 -2,6 -1,1 -2,1 -5,1l-14 0c-3,0 -5,0 -6,-1 -1,-1 -2,-3 -2,-6l0 -104c0,-4 1,-6 2,-8 1,-2 4,-4 8,-6 13,-6 29,-8 46,-8 13,0 23,2 31,8zm125 75l0 -29c0,-18 5,-31 15,-40 10,-10 25,-14 44,-14 18,0 33,4 43,14 10,9 15,22 15,38l0 15c0,7 -4,11 -12,11l-75 0 0 9c0,8 2,14 7,19 5,4 12,6 21,6 14,0 24,-4 30,-13 2,-3 4,-5 5,-5 2,0 5,0 8,2l8 5c6,2 7,6 3,12 -9,16 -27,24 -54,24 -19,0 -33,-4 -43,-14 -10,-9 -15,-23 -15,-40zm88 -28l0 -5c0,-8 -3,-15 -8,-19 -5,-4 -12,-7 -21,-7 -10,0 -17,3 -22,7 -5,4 -7,11 -7,19l0 5 58 0zm68 -107l14 0c2,0 4,0 5,1 1,2 2,4 2,6l0 49c13,-3 23,-4 30,-4 35,0 52,16 52,50l0 34c0,35 -18,53 -56,53 -18,0 -33,-2 -46,-8 -4,-2 -6,-3 -8,-5 -1,-2 -1,-5 -1,-9l0 -160c0,-2 1,-4 2,-6 1,-1 3,-1 6,-1zm74 135l0 -32c0,-8 -2,-14 -7,-18 -4,-5 -11,-7 -20,-7 -8,0 -17,2 -26,5l0 74c0,1 1,2 2,3 6,2 13,3 22,3 19,0 29,-10 29,-28zm152 -80l14 0c2,0 4,1 6,2 1,1 1,3 1,6l0 103c0,4 0,7 -2,9 -1,2 -3,4 -7,5 -15,6 -32,9 -50,9 -17,0 -30,-4 -39,-13 -9,-8 -13,-21 -13,-37l0 -76c0,-3 1,-5 2,-6 1,-1 3,-2 6,-2l14 0c2,0 4,1 5,2 1,1 2,3 2,6l0 75c0,16 9,25 27,25 9,0 17,-1 24,-3 1,-1 2,-3 2,-5l0 -92c0,-3 1,-5 2,-6 1,-1 3,-2 6,-2zm149 0l13 0c3,0 5,1 6,2 2,1 2,3 2,6l0 127c0,17 -4,31 -14,40 -9,10 -23,14 -41,14 -25,0 -43,-8 -52,-24 -4,-5 -3,-10 3,-12l9 -5c3,-2 6,-3 8,-2 1,0 3,2 5,5 5,8 14,12 26,12 18,0 27,-9 27,-27l0 -12c-11,3 -21,4 -30,4 -17,0 -30,-4 -39,-13 -9,-9 -13,-21 -13,-38l0 -69c0,-3 0,-5 1,-6 2,-1 4,-2 6,-2l14 0c3,0 5,1 6,2 1,1 2,3 2,6l0 68c0,17 9,25 27,25 8,0 17,-1 26,-3l0 -90c0,-3 1,-5 2,-6 1,-1 3,-2 6,-2zm53 80l0 -29c0,-18 5,-31 15,-40 10,-10 24,-14 43,-14 19,0 33,4 43,14 10,9 15,22 15,38l0 15c0,7 -3,11 -11,11l-76 0 0 9c0,8 3,14 7,19 6,4 13,6 22,6 14,0 24,-4 29,-13 2,-3 4,-5 6,-5 2,0 4,0 7,2l9 5c6,2 7,6 3,12 -10,16 -28,24 -54,24 -19,0 -34,-4 -43,-14 -10,-9 -15,-23 -15,-40zm87 -28l0 -5c0,-8 -2,-15 -7,-19 -5,-4 -12,-7 -22,-7 -9,0 -16,3 -21,7 -5,4 -8,11 -8,19l0 5 58 0zm117 -55l8 0c3,0 5,0 6,1 1,1 2,3 2,6l0 11c0,3 -1,5 -2,7 -1,1 -3,1 -6,1l-9 0c-9,0 -17,1 -24,3 -1,0 -2,1 -2,3l0 94c0,3 -1,5 -2,6 -1,1 -3,1 -6,1l-14 0c-2,0 -4,0 -6,-1 -1,-1 -1,-3 -1,-6l0 -105c0,-4 0,-6 1,-8 2,-2 4,-4 8,-6 13,-4 28,-7 47,-7z"/>
  <rect class="fil2" x="30" width="2337" height="4741"/>
 </g>
</svg>
