<?xml version="1.0" encoding="UTF-8"?>
<!DOCTYPE svg PUBLIC "-//W3C//DTD SVG 1.1//EN" "http://www.w3.org/Graphics/SVG/1.1/DTD/svg11.dtd">
<!-- Creator: CorelDRAW X7 -->
<svg xmlns="http://www.w3.org/2000/svg" xml:space="preserve" width="23.3678mm" height="47.4132mm" version="1.1" style="shape-rendering:geometricPrecision; text-rendering:geometricPrecision; image-rendering:optimizeQuality; fill-rule:evenodd; clip-rule:evenodd"
viewBox="0 0 2337 4741"
 xmlns:xlink="http://www.w3.org/1999/xlink">
 <defs>
  <style type="text/css">
   <![CDATA[
    .fil0 {fill:url(#id2)}
   ]]>
  </style>
    <clipPath id="id0">
     <path d="M192 45l1953 0c95,0 172,77 172,172l0 4307c0,95 -77,172 -172,172l-1953 0c-95,0 -172,-77 -172,-172l0 -4307c0,-95 77,-172 172,-172z"/>
    </clipPath>
    <clipPath id="id1">
     <path d="M1969 23l-1602 0c-230,0 -347,128 -347,333l0 4020c0,254 162,343 344,343l1609 0c182,0 344,-89 344,-343l0 -4020c0,-205 -117,-333 -348,-333z"/>
    </clipPath>
  <linearGradient id="id2" gradientUnits="userSpaceOnUse" x1="2498.66" y1="2172.61" x2="-161.88" y2="2568.71">
   <stop offset="0" style="stop-opacity:1; stop-color:#0FA5A3"/>
   <stop offset="0.0392157" style="stop-opacity:1; stop-color:#0FA5A3"/>
   <stop offset="1" style="stop-opacity:1; stop-color:#57E6A0"/>
  </linearGradient>
 </defs>
 <g id="Layer_x0020_1">
  <metadata id="CorelCorpID_0Corel-Layer"/>
  <g>
   <g style="clip-path:url(#id0)">
    <image x="20" y="45" width="2297" height="4651" xlink:href="iphone_2_Images\iphone_2_ImgID1.png"/>
   </g>
  </g>
  <g>
   <g style="clip-path:url(#id1)">
    <image x="20" y="23" width="2297" height="4696" xlink:href="iphone_2_Images\iphone_2_ImgID2.png"/>
   </g>
  </g>
  <path class="fil0" d="M1969 23l-1602 0c-230,0 -347,128 -347,333l0 4020c0,254 162,343 344,343l1609 0c182,0 344,-89 344,-343l0 -4020c0,-205 -117,-333 -348,-333z"/>
 </g>
</svg>
