<svg width="34" height="34" viewBox="0 0 34 34" fill="none" xmlns="http://www.w3.org/2000/svg">
<path d="M7.4375 3.1875L11.9701 14.195C9.25437 15.8822 7.4375 18.8849 7.4375 22.3125C7.4375 27.5846 11.7268 31.875 17 31.875C22.2732 31.875 26.5625 27.5846 26.5625 22.3125C26.5625 18.8859 24.7456 15.8833 22.0299 14.195L26.5625 3.1875H24.2654L20.1089 13.2791C19.4009 13.0326 18.6662 12.871 17.9201 12.7978L21.8737 3.1875H19.5766L15.5901 12.8669C15.0119 12.9515 14.4428 13.0895 13.8901 13.2791L9.73462 3.1875H7.4375ZM12.1252 3.1875L14.8251 9.74737L15.9747 6.95619L14.4234 3.1875H12.1252ZM17 14.875C21.1002 14.875 24.4375 18.2113 24.4375 22.3125C24.4375 26.4137 21.1002 29.75 17 29.75C12.8998 29.75 9.5625 26.4137 9.5625 22.3125C9.5625 18.2113 12.8998 14.875 17 14.875ZM17 18.2346L15.759 21.0184L12.75 21.3477L15.0025 23.3708L14.3682 26.3564L17 24.8391L19.6318 26.3585L18.9986 23.3729L21.25 21.3467L18.241 21.0173L17 18.2336V18.2346Z" fill="black"/>
</svg>
