<svg width="92" height="92" viewBox="0 0 92 92" fill="none" xmlns="http://www.w3.org/2000/svg">
<g clip-path="url(#clip0)">
<path d="M84.7766 82.2889C84.0734 82.2889 83.3705 82.07 82.7708 81.6323L78.6295 78.6097L74.4882 81.6323C73.2911 82.5059 71.6812 82.5077 70.4823 81.6367C69.2833 80.7654 68.7874 79.2339 69.2485 77.8254L70.8436 72.9527L66.6741 69.9375C65.4559 69.0564 64.9678 67.5628 65.4308 66.1324C65.8938 64.702 67.1645 63.7778 68.6681 63.7778H73.8175L75.392 58.9073C75.8546 57.4762 77.1253 56.5516 78.6295 56.5514C80.1337 56.5514 81.4045 57.476 81.8674 58.9073L83.4418 63.7778H88.5912C90.0947 63.7778 91.3654 64.702 91.8286 66.1322C92.2916 67.5626 91.8036 69.056 90.5854 69.9373L86.4158 72.9527L88.0109 77.8253C88.4718 79.2339 87.976 80.7654 86.7771 81.6367C86.1781 82.0715 85.4773 82.2889 84.7766 82.2889ZM78.6295 74.5883C79.0012 74.5883 79.3733 74.7035 79.6888 74.9338L84.4113 78.3808L82.5923 72.8243C82.3493 72.0817 82.6139 71.2672 83.2471 70.8093L88.0016 67.3711H82.134C81.3546 67.3711 80.6641 66.8685 80.4242 66.1268L78.6295 60.5742L76.8348 66.127C76.5949 66.8685 75.9044 67.3711 75.125 67.3711H69.2578L74.0121 70.8093C74.6451 71.2672 74.9098 72.0817 74.6668 72.8243L72.8478 78.3808L77.5703 74.9338C77.8857 74.7035 78.2576 74.5883 78.6295 74.5883Z" fill="white"/>
<path d="M19.5185 82.2889C18.8153 82.2889 18.1124 82.07 17.5127 81.6323L13.3716 78.6095L9.23033 81.6322C8.03318 82.5057 6.42332 82.5075 5.22437 81.6365C4.02542 80.7652 3.52952 79.2337 3.99056 77.8253L5.58569 72.9526L1.41604 69.9375C0.197862 69.0562 -0.290127 67.5626 0.172888 66.1322C0.635903 64.7019 1.90654 63.7778 3.41022 63.7778H8.55962L10.1339 58.9074C10.5967 57.476 11.8676 56.5514 13.3718 56.5514H13.372C14.876 56.5516 16.1466 57.4762 16.6095 58.9074L18.1839 63.7778H23.3333C24.8368 63.7778 26.1075 64.7022 26.5707 66.1324C27.0339 67.5626 26.5455 69.0562 25.3273 69.9373L21.1579 72.9527L22.753 77.8253C23.2139 79.2339 22.7181 80.7654 21.5192 81.6367C20.9202 82.0715 20.2194 82.2889 19.5185 82.2889ZM13.3716 74.5883C13.7433 74.5883 14.1154 74.7035 14.4309 74.9338L19.1534 78.3808L17.3344 72.8243C17.0913 72.0817 17.356 71.2672 17.9892 70.8093L22.7435 67.3711H16.8759C16.0965 67.3711 15.406 66.8685 15.1662 66.127L13.3714 60.5742L11.5767 66.1268C11.3368 66.8685 10.6463 67.3711 9.86691 67.3711H3.99954L8.75402 70.8093C9.38701 71.2672 9.65167 72.0817 9.40875 72.8243L7.58975 78.3808L12.3123 74.9338C12.6278 74.7035 12.9997 74.5883 13.3716 74.5883Z" fill="white"/>
<path d="M57.9677 82.2975C56.957 82.2975 55.9467 81.9759 55.0656 81.3329L46.0003 74.7163L36.9349 81.3329C35.1756 82.6168 32.9002 82.6193 31.1387 81.339C29.3767 80.059 28.6761 77.8945 29.3535 75.8249L32.8452 65.1586L23.7217 58.5602C21.9589 57.2854 21.253 55.1243 21.923 53.0547C22.593 50.985 24.4314 49.6479 26.6067 49.6479H37.8699L41.3159 38.9878C41.9853 36.9172 43.8239 35.5789 46.0003 35.5789C48.1766 35.5789 50.0154 36.9171 50.6847 38.988L54.1306 49.6479H65.3939C67.5692 49.6479 69.4078 50.985 70.0776 53.0547C70.7476 55.1243 70.0417 57.2854 68.2789 58.5602L59.1553 65.1586L62.6471 75.8249C63.3246 77.8947 62.6239 80.059 60.8619 81.339C59.9822 81.9779 58.9749 82.2975 57.9677 82.2975ZM46.0001 70.6949C46.3718 70.6949 46.7439 70.81 47.0594 71.0404L57.1841 78.4303C57.9097 78.9598 58.5658 78.5654 58.7496 78.4319C58.9334 78.2984 59.5113 77.7964 59.2319 76.9428L55.3323 65.03C55.0892 64.2874 55.3538 63.4729 55.987 63.0151L66.1731 55.6484C66.9003 55.1223 66.7289 54.3772 66.659 54.1614C66.5891 53.9457 66.2914 53.2413 65.3939 53.2413H52.8231C52.0437 53.2413 51.3532 52.7388 51.1134 51.9973L47.2653 40.0931C46.9894 39.2388 46.2274 39.1723 46.0003 39.1723C45.7732 39.1723 45.0112 39.2388 44.7352 40.0929L40.8872 51.9973C40.6473 52.7388 39.9568 53.2413 39.1774 53.2413H26.6067C25.7092 53.2413 25.4115 53.9457 25.3416 54.1614C25.2717 54.3772 25.1003 55.1225 25.8274 55.6484L36.0136 63.0151C36.6465 63.4729 36.9112 64.2874 36.6683 65.03L32.7687 76.9428C32.4891 77.7964 33.0669 78.2984 33.2509 78.4319C33.4346 78.5654 34.0907 78.9598 34.8164 78.4303L44.9411 71.0404C45.2563 70.81 45.6284 70.6949 46.0001 70.6949Z" fill="white"/>
<path d="M46.0007 28.1377C45.0085 28.1377 44.204 27.3331 44.204 26.3409V19.5846C44.204 18.5924 45.0085 17.7878 46.0007 17.7878C46.9928 17.7878 47.7974 18.5924 47.7974 19.5846V26.3409C47.7974 27.3333 46.993 28.1377 46.0007 28.1377Z" fill="white"/>
<path d="M64.3267 29.455C63.8667 29.455 63.4071 29.2795 63.0562 28.9288C62.3546 28.2272 62.3546 27.0895 63.0562 26.3877L72.6119 16.832C73.3137 16.1305 74.4511 16.1305 75.153 16.832C75.8547 17.5336 75.8547 18.6713 75.153 19.3731L65.5973 28.9288C65.2463 29.2797 64.7867 29.455 64.3267 29.455Z" fill="white"/>
<path d="M27.6739 29.455C27.2139 29.455 26.7543 29.2795 26.4034 28.9288L16.8477 19.3731C16.1461 18.6715 16.1461 17.5338 16.8477 16.832C17.5495 16.1305 18.6869 16.1305 19.3889 16.832L28.9445 26.3877C29.6461 27.0893 29.6461 28.227 28.9445 28.9288C28.5934 29.2797 28.1339 29.455 27.6739 29.455Z" fill="white"/>
<path d="M46.0111 13.2962C45.5385 13.2962 45.075 13.1039 44.741 12.7696C44.4068 12.4356 44.2144 11.972 44.2144 11.4995C44.2144 11.0268 44.4066 10.5634 44.741 10.2292C45.0768 9.89501 45.5385 9.70276 46.0111 9.70276C46.4836 9.70276 46.9472 9.89483 47.2813 10.2292C47.6173 10.5634 47.8094 11.0268 47.8094 11.4995C47.8094 11.972 47.6173 12.4356 47.2813 12.7696C46.9472 13.1038 46.4854 13.2962 46.0111 13.2962Z" fill="white"/>
</g>
<defs>
<clipPath id="clip0">
<rect width="92" height="92" fill="white"/>
</clipPath>
</defs>
</svg>
