<svg width="1283" height="211" viewBox="0 0 1283 211" fill="none" xmlns="http://www.w3.org/2000/svg">
<path opacity="0.5" d="M0 77.2366C0 50.3541 0 36.9129 5.23169 26.6451C9.83361 17.6133 17.1767 10.2703 26.2085 5.66833C36.4762 0.436646 49.9175 0.436646 76.8 0.436646H1206.2C1233.08 0.436646 1246.52 0.436646 1256.79 5.66833C1265.82 10.2703 1273.17 17.6133 1277.77 26.6451C1283 36.9129 1283 50.3541 1283 77.2366V134.06C1283 160.942 1283 174.384 1277.77 184.651C1273.17 193.683 1265.82 201.026 1256.79 205.628C1246.52 210.86 1233.08 210.86 1206.2 210.86H76.8001C49.9175 210.86 36.4762 210.86 26.2085 205.628C17.1767 201.026 9.83361 193.683 5.23169 184.651C0 174.384 0 160.942 0 134.06V77.2366Z" fill="white"/>
</svg>
