<svg width="348" height="164" viewBox="0 0 348 164" fill="none" xmlns="http://www.w3.org/2000/svg">
<path opacity="0.3" d="M0 77.3354C0 50.4529 0 37.0116 5.23169 26.7439C9.83361 17.7121 17.1767 10.369 26.2085 5.76709C36.4762 0.5354 49.9175 0.5354 76.8 0.5354H271.2C298.083 0.5354 311.524 0.5354 321.792 5.76709C330.823 10.369 338.166 17.7121 342.768 26.7439C348 37.0116 348 50.4529 348 77.3354V86.3636C348 113.246 348 126.687 342.768 136.955C338.166 145.987 330.823 153.33 321.792 157.932C311.524 163.164 298.083 163.164 271.2 163.164H76.8C49.9175 163.164 36.4762 163.164 26.2085 157.932C17.1767 153.33 9.83361 145.987 5.23169 136.955C0 126.687 0 113.246 0 86.3636V77.3354Z" fill="white"/>
</svg>
