<svg width="46" height="45" viewBox="0 0 46 45" fill="none" xmlns="http://www.w3.org/2000/svg">
<path d="M36.341 5.6247L38.5692 5.34619C39.5664 5.22041 40.2762 4.31299 40.1594 3.30674C40.0426 2.38135 39.2879 1.62666 38.12 1.7165L31.4176 2.55205C30.4203 2.67783 29.7106 3.58525 29.8274 4.58252L30.6539 11.3747C30.7797 12.372 31.6871 13.0907 32.6844 12.9649C33.6817 12.8392 34.4004 11.9317 34.2746 10.9255L33.9692 8.40088C40.2672 13.0728 42.8817 21.1767 40.4649 28.6786C38.0481 36.1806 30.9504 41.3286 23.1071 41.3466C21.9481 41.3466 21.2114 42.1192 21.1844 43.1255C21.1664 44.1317 21.8852 44.9942 23.1071 44.9942C32.5227 44.9942 41.0489 38.804 43.9418 29.7927C46.8168 20.8892 43.7621 11.2489 36.341 5.6247Z" fill="black"/>
<path d="M36.341 5.6247L38.5692 5.34619C39.5664 5.22041 40.2762 4.31299 40.1594 3.30674C40.0426 2.38135 39.2879 1.62666 38.12 1.7165L31.4176 2.55205C30.4203 2.67783 29.7106 3.58525 29.8274 4.58252L30.6539 11.3747C30.7797 12.372 31.6871 13.0907 32.6844 12.9649C33.6817 12.8392 34.4004 11.9317 34.2746 10.9255L33.9692 8.40088C40.2672 13.0728 42.8817 21.1767 40.4649 28.6786C38.0481 36.1806 30.9504 41.3286 23.1071 41.3466C21.9481 41.3466 21.2114 42.1192 21.1844 43.1255C21.1664 44.1317 21.8852 44.9942 23.1071 44.9942C32.5227 44.9942 41.0489 38.804 43.9418 29.7927C46.8168 20.8892 43.7621 11.2489 36.341 5.6247Z" fill="url(#paint0_linear)"/>
<path d="M15.3356 34.6171C15.2098 33.6198 14.3024 32.9011 13.3051 33.0269C12.3078 33.1526 11.5891 34.0601 11.7149 35.0663L12.0203 37.5909C5.72229 32.9191 3.10783 24.8151 5.52463 17.3132C7.94142 9.81124 15.0391 4.66319 22.8824 4.64523C24.0414 4.64523 24.7781 3.87257 24.8051 2.86632C24.8231 1.86007 24.1043 0.997568 22.8824 0.997568C13.4758 0.988584 4.94963 7.17882 2.05666 16.1901C-0.818338 25.1116 2.23635 34.7519 9.65744 40.3761L7.42932 40.6546C6.43205 40.7804 5.72228 41.6878 5.83908 42.6941C5.95588 43.6194 6.71057 44.3741 7.87853 44.2843L14.5809 43.4487C15.5781 43.323 16.2879 42.4155 16.1711 41.4183L15.3356 34.6171Z" fill="black"/>
<path d="M15.3356 34.6171C15.2098 33.6198 14.3024 32.9011 13.3051 33.0269C12.3078 33.1526 11.5891 34.0601 11.7149 35.0663L12.0203 37.5909C5.72229 32.9191 3.10783 24.8151 5.52463 17.3132C7.94142 9.81124 15.0391 4.66319 22.8824 4.64523C24.0414 4.64523 24.7781 3.87257 24.8051 2.86632C24.8231 1.86007 24.1043 0.997568 22.8824 0.997568C13.4758 0.988584 4.94963 7.17882 2.05666 16.1901C-0.818338 25.1116 2.23635 34.7519 9.65744 40.3761L7.42932 40.6546C6.43205 40.7804 5.72228 41.6878 5.83908 42.6941C5.95588 43.6194 6.71057 44.3741 7.87853 44.2843L14.5809 43.4487C15.5781 43.323 16.2879 42.4155 16.1711 41.4183L15.3356 34.6171Z" fill="url(#paint1_linear)"/>
<defs>
<linearGradient id="paint0_linear" x1="42.6776" y1="2.18358" x2="18.4481" y2="6.84461" gradientUnits="userSpaceOnUse">
<stop stop-color="#0FA5A3"/>
<stop offset="1" stop-color="#57E6A0"/>
</linearGradient>
<linearGradient id="paint1_linear" x1="22.4733" y1="1.47201" x2="-1.74814" y2="6.12875" gradientUnits="userSpaceOnUse">
<stop stop-color="#0FA5A3"/>
<stop offset="1" stop-color="#57E6A0"/>
</linearGradient>
</defs>
</svg>
