<svg width="188" height="35" viewBox="0 0 188 35" fill="none" xmlns="http://www.w3.org/2000/svg">
<path d="M2.285 2.05H22.13C22.7 2.05 23.09 2.17 23.3 2.41C23.54 2.62 23.66 3.01 23.66 3.58V5.74C23.66 6.4 23.495 6.94 23.165 7.36L7.595 28.735H22.4C23 28.735 23.405 28.855 23.615 29.095C23.825 29.305 23.93 29.695 23.93 30.265V32.47C23.93 33.04 23.81 33.445 23.57 33.685C23.36 33.895 22.97 34 22.4 34H2.06C1.49 34 1.085 33.895 0.845 33.685C0.635 33.445 0.53 33.04 0.53 32.47V30.265C0.53 29.695 0.71 29.17 1.07 28.69L16.595 7.315H2.285C1.715 7.315 1.31 7.21 1.07 7C0.86 6.76 0.755 6.355 0.755 5.785V3.58C0.755 3.01 0.86 2.62 1.07 2.41C1.31 2.17 1.715 2.05 2.285 2.05ZM27.9805 25.045V19.735C27.9805 16.585 28.8655 14.185 30.6355 12.535C32.4355 10.855 35.0305 10.015 38.4205 10.015C41.7505 10.015 44.3155 10.87 46.1155 12.58C47.9155 14.26 48.8155 16.51 48.8155 19.33V22.075C48.8155 23.365 48.1405 24.01 46.7905 24.01H33.2005V25.675C33.2005 27.145 33.6355 28.27 34.5055 29.05C35.4055 29.8 36.6805 30.175 38.3305 30.175C40.8205 30.175 42.5905 29.38 43.6405 27.79C44.0005 27.28 44.3305 26.995 44.6305 26.935C44.9605 26.845 45.3955 26.95 45.9355 27.25L47.5105 28.105C48.5305 28.585 48.7105 29.335 48.0505 30.355C46.3105 33.235 43.0705 34.675 38.3305 34.675C34.9105 34.675 32.3305 33.835 30.5905 32.155C28.8505 30.445 27.9805 28.075 27.9805 25.045ZM43.5955 20.005V19.015C43.5955 17.545 43.1605 16.42 42.2905 15.64C41.4205 14.83 40.1305 14.425 38.4205 14.425C36.7405 14.425 35.4505 14.83 34.5505 15.64C33.6505 16.42 33.2005 17.545 33.2005 19.015V20.005H43.5955ZM56.0101 11.545C58.5301 10.525 61.4851 10.015 64.8751 10.015C67.9951 10.015 70.3351 10.795 71.8951 12.355C73.4551 13.885 74.2351 16.12 74.2351 19.06V32.605C74.2351 33.115 74.1301 33.475 73.9201 33.685C73.7101 33.895 73.3501 34 72.8401 34H70.3651C69.8551 34 69.4951 33.895 69.2851 33.685C69.1051 33.475 69.0151 33.115 69.0151 32.605V19.195C69.0151 16.255 67.3801 14.785 64.1101 14.785C62.6101 14.785 61.1701 14.98 59.7901 15.37C59.5801 15.46 59.4751 15.61 59.4751 15.82V32.605C59.4751 33.115 59.3701 33.475 59.1601 33.685C58.9801 33.895 58.6351 34 58.1251 34H55.6501C55.1401 34 54.7801 33.895 54.5701 33.685C54.3601 33.475 54.2551 33.115 54.2551 32.605V14.11C54.2551 13.39 54.3601 12.865 54.5701 12.535C54.8101 12.175 55.2901 11.845 56.0101 11.545ZM85.9577 2.095V32.605C85.9577 33.115 85.8527 33.475 85.6427 33.685C85.4327 33.895 85.0727 34 84.5627 34H82.1327C81.5927 34 81.2177 33.895 81.0077 33.685C80.8277 33.475 80.7377 33.115 80.7377 32.605V2.095C80.7377 1.585 80.8277 1.225 81.0077 1.015C81.2177 0.804999 81.5927 0.7 82.1327 0.7H84.5627C85.0727 0.7 85.4327 0.804999 85.6427 1.015C85.8527 1.225 85.9577 1.585 85.9577 2.095ZM91.945 25.675V19.015C91.945 16.195 92.845 13.99 94.645 12.4C96.445 10.81 98.995 10.015 102.295 10.015C105.595 10.015 108.145 10.81 109.945 12.4C111.775 13.99 112.69 16.195 112.69 19.015V25.675C112.69 28.495 111.775 30.7 109.945 32.29C108.145 33.88 105.595 34.675 102.295 34.675C98.995 34.675 96.445 33.88 94.645 32.29C92.845 30.7 91.945 28.495 91.945 25.675ZM107.47 25.675V19.015C107.47 17.635 107.02 16.585 106.12 15.865C105.22 15.115 103.945 14.74 102.295 14.74C100.645 14.74 99.37 15.115 98.47 15.865C97.6 16.585 97.165 17.635 97.165 19.015V25.675C97.165 27.025 97.6 28.075 98.47 28.825C99.37 29.575 100.645 29.95 102.295 29.95C103.945 29.95 105.22 29.575 106.12 28.825C107.02 28.075 107.47 27.025 107.47 25.675ZM118.168 17.26C118.168 15.01 118.963 13.24 120.553 11.95C122.143 10.66 124.438 10.015 127.438 10.015C132.268 10.015 135.478 11.62 137.068 14.83C137.548 15.73 137.308 16.405 136.348 16.855L134.323 17.665C133.813 17.875 133.438 17.95 133.198 17.89C132.988 17.8 132.733 17.515 132.433 17.035C131.593 15.475 129.973 14.695 127.573 14.695C124.753 14.695 123.343 15.505 123.343 17.125C123.343 18.085 123.703 18.745 124.423 19.105C125.173 19.465 126.568 19.735 128.608 19.915C131.818 20.215 134.143 20.89 135.583 21.94C137.053 22.99 137.788 24.73 137.788 27.16C137.788 29.47 136.933 31.3 135.223 32.65C133.543 34 131.158 34.675 128.068 34.675C122.758 34.675 119.413 32.86 118.033 29.23C117.673 28.3 117.973 27.67 118.933 27.34L120.958 26.71C121.828 26.35 122.443 26.635 122.803 27.565C123.463 29.215 125.158 30.04 127.888 30.04C131.068 30.04 132.658 29.155 132.658 27.385C132.658 26.425 132.283 25.765 131.533 25.405C130.783 25.015 129.358 24.715 127.258 24.505C125.158 24.295 123.463 23.935 122.173 23.425C121.303 23.095 120.598 22.69 120.058 22.21C118.798 21.1 118.168 19.45 118.168 17.26ZM141.779 25.045V19.735C141.779 16.585 142.664 14.185 144.434 12.535C146.234 10.855 148.829 10.015 152.219 10.015C155.549 10.015 158.114 10.87 159.914 12.58C161.714 14.26 162.614 16.51 162.614 19.33V22.075C162.614 23.365 161.939 24.01 160.589 24.01H146.999V25.675C146.999 27.145 147.434 28.27 148.304 29.05C149.204 29.8 150.479 30.175 152.129 30.175C154.619 30.175 156.389 29.38 157.439 27.79C157.799 27.28 158.129 26.995 158.429 26.935C158.759 26.845 159.194 26.95 159.734 27.25L161.309 28.105C162.329 28.585 162.509 29.335 161.849 30.355C160.109 33.235 156.869 34.675 152.129 34.675C148.709 34.675 146.129 33.835 144.389 32.155C142.649 30.445 141.779 28.075 141.779 25.045ZM157.394 20.005V19.015C157.394 17.545 156.959 16.42 156.089 15.64C155.219 14.83 153.929 14.425 152.219 14.425C150.539 14.425 149.249 14.83 148.349 15.64C147.449 16.42 146.999 17.545 146.999 19.015V20.005H157.394ZM167.423 25.585V19.42C167.423 16.33 168.203 13.99 169.763 12.4C171.353 10.81 173.708 10.015 176.828 10.015C178.268 10.015 180.053 10.21 182.183 10.6V2.095C182.183 1.585 182.273 1.225 182.453 1.015C182.663 0.804999 183.023 0.7 183.533 0.7H186.008C186.518 0.7 186.878 0.804999 187.088 1.015C187.298 1.225 187.403 1.585 187.403 2.095V30.76C187.403 31.48 187.283 32.005 187.043 32.335C186.803 32.635 186.323 32.935 185.603 33.235C182.993 34.195 180.188 34.675 177.188 34.675C170.678 34.675 167.423 31.645 167.423 25.585ZM182.183 28.915V15.37C180.443 14.98 178.988 14.785 177.818 14.785C174.368 14.785 172.643 16.375 172.643 19.555V25.405C172.643 28.405 174.323 29.905 177.683 29.905C179.213 29.905 180.593 29.74 181.823 29.41C182.063 29.32 182.183 29.155 182.183 28.915Z" fill="white"/>
</svg>
